<?xml version="1.0" encoding="UTF-8"?>
<svg version="1.1" xmlns="http://www.w3.org/2000/svg" width="500" height="500">
<path d="M0 0 C3.99511699 0.01368979 7.98935852 -0.02030717 11.984375 -0.05200195 C32.4061258 -0.10869745 52.00430216 1.89878995 71.6484375 7.69604492 C72.67662598 7.99269043 73.70481445 8.28933594 74.76416016 8.5949707 C84.75613766 11.55996294 94.36733097 15.24356856 103.8984375 19.44604492 C104.68379883 19.78861328 105.46916016 20.13118164 106.27832031 20.48413086 C118.34122176 25.79973384 129.60316069 32.16448333 140.78222656 39.13452148 C142.54441721 40.22664056 144.32478606 41.28936049 146.109375 42.34448242 C154.11814847 47.15914096 160.96717288 53.22592766 167.8984375 59.44604492 C168.44258301 59.93234375 168.98672852 60.41864258 169.54736328 60.91967773 C173.38948238 64.36788319 177.15756021 67.88851244 180.8984375 71.44604492 C181.4980127 72.01162109 182.09758789 72.57719727 182.71533203 73.15991211 C198.15455668 87.80686605 209.94435243 104.2642271 220.8984375 122.44604492 C221.27838867 123.07075684 221.65833984 123.69546875 222.04980469 124.33911133 C234.33242904 144.64223278 243.33687833 166.59798118 249.2109375 189.57104492 C249.55644653 190.90848755 249.55644653 190.90848755 249.90893555 192.27294922 C250.64771816 195.31944471 251.28988782 198.37071515 251.8984375 201.44604492 C252.03047577 202.10894531 252.16251404 202.7718457 252.29855347 203.45483398 C255.04542443 217.7465046 255.39436207 231.89330076 255.34448242 246.41674805 C255.33598039 250.17707308 255.36483884 253.93586889 255.39648438 257.69604492 C255.54262577 307.94171966 238.26540976 354.38279492 209.8984375 395.44604492 C208.9795488 396.80870627 208.06148487 398.17192443 207.14453125 399.53588867 C201.45764112 407.87651163 194.94396919 415.24191252 187.8984375 422.44604492 C187.28210449 423.07752441 186.66577148 423.70900391 186.03076172 424.35961914 C172.08071634 438.59628535 172.08071634 438.59628535 164.8984375 444.44604492 C163.94582031 445.24913086 162.99320312 446.0522168 162.01171875 446.87963867 C153.03487553 454.30199791 143.3754366 460.26277006 133.29248047 466.06323242 C131.13957716 467.30676132 129.00348194 468.57404161 126.87109375 469.85229492 C95.62251074 488.34455207 58.25662545 500.45934997 21.8359375 500.68432617 C20.57241455 500.69239792 19.3088916 500.70046967 18.00708008 500.70878601 C15.33085519 500.72258661 12.65475156 500.73361033 9.97851562 500.74121094 C7.2866822 500.74997153 4.5961086 500.77295333 1.90429688 500.80273438 C-19.97508822 501.04424954 -40.78168805 499.41405514 -61.8515625 493.19604492 C-62.87975098 492.89939941 -63.90793945 492.60275391 -64.96728516 492.29711914 C-74.95959063 489.33202958 -84.56946802 485.64686259 -94.1015625 481.44604492 C-94.87628906 481.10879395 -95.65101563 480.77154297 -96.44921875 480.42407227 C-118.36964301 470.78585567 -139.92182173 458.46615397 -157.40625 441.96557617 C-159.50662996 440.00217751 -161.63184083 438.11459605 -163.80859375 436.23901367 C-177.05670495 424.68734488 -189.52346408 412.23252681 -199.1015625 397.44604492 C-199.60123535 396.6784082 -200.1009082 395.91077148 -200.61572266 395.11987305 C-204.18418047 389.60646953 -207.67314632 384.04745896 -211.1015625 378.44604492 C-211.5972876 377.64513428 -212.0930127 376.84422363 -212.60375977 376.01904297 C-232.34846165 343.738626 -245.36488542 304.80328982 -245.4375 266.79760742 C-245.4441568 265.54257416 -245.4508136 264.28754089 -245.45767212 262.99447632 C-245.46772582 260.35416104 -245.47249142 257.71382073 -245.47216797 255.07348633 C-245.47192681 251.11532879 -245.51284224 247.1579265 -245.55078125 243.19995117 C-245.71844347 205.38014429 -236.15981388 170.29254016 -219.4140625 136.44604492 C-218.98714111 135.58108398 -218.56021973 134.71612305 -218.12036133 133.82495117 C-215.39572832 128.49724171 -212.25879908 123.6602932 -208.76831055 118.8034668 C-206.88130017 116.1345094 -205.17673388 113.39254499 -203.49365234 110.5925293 C-195.22075663 96.85506586 -185.3745846 85.45272374 -174.1015625 74.13354492 C-173.59308777 73.62130371 -173.08461304 73.1090625 -172.56072998 72.58129883 C-166.50821894 66.50613016 -160.32560662 60.79536388 -153.60473633 55.44946289 C-150.94479145 53.32057304 -148.36719931 51.11045948 -145.7890625 48.88354492 C-140.76653809 44.77291147 -135.42608643 41.57482037 -129.74609375 38.46948242 C-126.7114471 36.80921404 -123.77698868 35.02506511 -120.84448242 33.19189453 C-97.31582592 18.58471914 -71.14231921 9.07633266 -44.1015625 3.44604492 C-42.88678223 3.17606689 -41.67200195 2.90608887 -40.42041016 2.62792969 C-27.04361469 -0.11724419 -13.60765847 -0.04876567 0 0 Z M105.58349609 92.91870117 C104.7015583 93.79187737 104.7015583 93.79187737 103.80180359 94.68269348 C101.86604616 96.60804982 99.95656803 98.55736041 98.046875 100.50854492 C96.70253889 101.85832709 95.35686527 103.20677836 94.00991821 104.55395508 C91.19002451 107.38157695 88.38213751 110.22042784 85.58300781 113.06860352 C82.0078789 116.70581508 78.41145915 120.32098734 74.80664635 123.92875671 C72.02589355 126.71422997 69.2532802 129.50768588 66.48335648 132.30392456 C65.16059719 133.63868665 63.83619544 134.97182322 62.51008224 136.30325317 C60.65051722 138.17413168 58.80126786 140.0546428 56.95458984 141.93823242 C56.41316849 142.47986526 55.87174713 143.02149811 55.31391907 143.57954407 C50.46513535 148.56370903 46.23580466 154.30096874 44.1484375 161.00854492 C43.81585938 162.03141602 43.81585938 162.03141602 43.4765625 163.07495117 C42.18731976 168.36258862 41.8331546 173.39368279 41.72265625 178.82495117 C41.69880859 179.99348633 41.67496094 181.16202148 41.65039062 182.3659668 C41.60735594 184.7980785 41.57614154 187.23042756 41.55664062 189.6628418 C41.29280321 200.77469193 41.29280321 200.77469193 36.8984375 205.44604492 C34.3125 207.75463867 34.3125 207.75463867 31.5234375 209.88354492 C27.04081209 213.42403889 23.42571798 216.9654454 19.8984375 221.44604492 C20.75566406 222.21948242 21.61289062 222.99291992 22.49609375 223.78979492 C28.15061982 228.92862028 33.69398773 233.98254961 38.53125 239.92260742 C40.01593841 241.70403694 40.01593841 241.70403694 42.8984375 243.44604492 C43.25558838 243.02307129 43.61273926 242.60009766 43.98071289 242.16430664 C45.63510652 240.21165839 47.29793997 238.26636953 48.9609375 236.32104492 C49.80301758 235.32331055 49.80301758 235.32331055 50.66210938 234.30541992 C51.80997954 232.96733127 52.97901968 231.64714125 54.16748047 230.3449707 C55.89286091 228.50183972 55.89286091 228.50183972 57.30517578 226.63696289 C60.62100165 222.9535628 63.54970208 222.11643447 68.49171448 221.83779907 C72.21286392 221.74079179 75.92681179 221.76415383 79.6484375 221.82104492 C97.6293779 222.01372538 111.04639503 218.45573549 124.234375 205.59594727 C126.59894185 203.25905901 128.93755077 200.89749062 131.2734375 198.53198242 C132.53157576 197.27145506 133.79045964 196.01167151 135.05004883 194.75259399 C137.67162418 192.12790924 140.28640019 189.49670204 142.89599609 186.86010742 C146.23919821 183.48275239 149.59559171 180.11888932 152.95666504 176.75932884 C155.54975121 174.16569907 158.13759501 171.56689246 160.72369385 168.96629715 C161.96006822 167.72356838 163.19764883 166.48203845 164.4364624 165.24174118 C166.1619552 163.51191097 167.88070428 161.77565595 169.59765625 160.03735352 C170.10774734 159.52816879 170.61783844 159.01898407 171.14338684 158.49436951 C173.59590929 155.99713722 175.69690641 153.768071 176.8984375 150.44604492 C176.81630609 146.50373725 176.34388819 144.9286165 173.6484375 142.00854492 C171.06761348 140.19613844 171.06761348 140.19613844 168.45315552 140.66842651 C165.69634484 141.50755894 164.37679822 142.38636825 162.27294922 144.32543945 C161.58344177 144.95967834 160.89393433 145.59391724 160.18353271 146.24737549 C156.21026612 150.07036709 152.29167027 153.94463825 148.4095192 157.85979843 C146.87334729 159.40891233 145.33391648 160.95472362 143.79367065 162.49978638 C140.53407344 165.77070639 137.27848 169.04559312 134.0234375 172.32104492 C130.22786486 176.14024867 126.43065273 179.95779325 122.62923813 183.77118301 C121.11267509 185.29422646 119.59915158 186.82024693 118.08572388 188.34640503 C117.17072113 189.264711 116.25571838 190.18301697 115.31298828 191.12915039 C114.50660919 191.9407663 113.7002301 192.7523822 112.86941528 193.58859253 C110.21240663 196.09256144 109.29523611 196.41609786 105.5859375 196.69604492 C100.80049849 196.37160838 98.53163909 194.96661192 95.0859375 191.75854492 C93.29036611 188.2619059 92.95678783 185.20881434 93.8984375 181.44604492 C98.34468169 174.85670934 104.84762355 169.44803127 110.52795219 163.924757 C113.22115871 161.30123535 115.89708348 158.66014007 118.57617188 156.0222168 C121.96648111 152.68592609 125.36170877 149.35512031 128.77514648 146.04248047 C131.55411035 143.34467914 134.31561478 140.63005992 137.06627083 137.90341377 C138.1122193 136.87286386 139.16442412 135.84862267 140.22299004 134.83103752 C141.69974765 133.40990479 143.15316732 131.96826998 144.60327148 130.52001953 C145.43487289 129.70697861 146.2664743 128.89393768 147.12327576 128.05625916 C149.43951342 124.65044189 149.35168571 122.48414337 148.8984375 118.44604492 C146.99421919 115.76603397 145.53596803 114.71447883 142.5234375 113.44604492 C137.83508576 113.44604492 134.64066547 116.76864531 131.29890442 119.81852722 C130.43303207 120.6948732 129.56715973 121.57121918 128.67504883 122.47412109 C128.19131302 122.96077744 127.70757721 123.44743378 127.20918274 123.94883728 C126.16918727 124.9963911 125.13150656 126.04624722 124.0959568 127.09819603 C122.45699997 128.76285042 120.81172655 130.4210263 119.16471863 132.07771301 C115.67445826 135.59073026 112.19215283 139.11156735 108.7109375 142.63354492 C104.66510518 146.72659458 100.61606882 150.81636522 96.55853844 154.89782143 C94.93746064 156.53186587 93.32251861 158.17181304 91.7077179 159.8120575 C90.71665533 160.81038292 89.72531213 161.80842986 88.73364258 162.80615234 C87.87015701 163.68011154 87.00667145 164.55407074 86.11701965 165.45451355 C82.30465383 168.87671999 78.84737341 168.70651523 73.8984375 168.44604492 C71.22136379 167.5778048 70.24854409 167.03717182 68.81492615 164.61662292 C67.12731489 160.6197465 67.38885458 157.38287574 68.8984375 153.44604492 C72.34944876 148.9022372 76.40745554 145.05383565 80.51953125 141.11401367 C81.70346974 139.95010146 82.88549513 138.78424032 84.06568909 137.61653137 C87.16655303 134.55739792 90.28979233 131.52221077 93.41931152 128.49243164 C98.4302313 123.63246818 103.40400904 118.73441791 108.38197517 113.84075356 C110.12087356 112.13719062 111.8679412 110.44239254 113.61680603 108.74906921 C114.68531266 107.70700305 115.75372301 106.66483815 116.82202148 105.62255859 C118.2231443 104.26429207 118.2231443 104.26429207 119.65257263 102.87858582 C121.63027923 100.73649247 122.89938655 99.15896144 123.8984375 96.44604492 C123.7407958 93.29321101 123.09119263 91.7203503 121.2734375 89.13354492 C115.02783523 84.69588015 110.1934774 88.1332521 105.58349609 92.91870117 Z M-129.79003906 111.84155273 C-131.98649745 114.52865707 -132.77584496 117.50060389 -133.4765625 120.82104492 C-133.63519775 121.52221436 -133.79383301 122.22338379 -133.95727539 122.94580078 C-139.01107018 147.22853554 -129.68992714 170.97820489 -117.1015625 191.44604492 C-114.01605362 195.97877988 -110.5953314 200.22214469 -107.1015625 204.44604492 C-106.44800781 205.28651367 -105.79445312 206.12698242 -105.12109375 206.99291992 C-102.92061367 209.6658435 -100.57994151 212.02569958 -98.1015625 214.44604492 C-94.97182466 217.54544725 -91.84961724 220.65241076 -88.7265625 223.75854492 C-87.9015625 224.57516602 -87.0765625 225.39178711 -86.2265625 226.2331543 C-81.8450643 230.59726559 -77.62925151 235.029648 -73.59863281 239.71972656 C-71.70423367 241.90421716 -69.71220609 243.96814479 -67.6640625 246.00854492 C-66.98472656 246.69045898 -66.30539063 247.37237305 -65.60546875 248.07495117 C-63.59047222 249.98306801 -61.54520341 251.78974767 -59.43896484 253.59326172 C-55.13813015 257.34843245 -51.16321295 261.35665963 -47.19921875 265.46166992 C-45.71755828 266.97543639 -44.2351127 268.48843472 -42.75195312 270.00073242 C-40.44948591 272.3526278 -38.15198451 274.708571 -35.86743164 277.07788086 C-33.63779482 279.3865591 -31.38922285 281.67532532 -29.13671875 283.96166992 C-28.46455826 284.66793518 -27.79239777 285.37420044 -27.09986877 286.10186768 C-22.07197674 291.15804913 -16.94762494 294.3990222 -9.62953186 294.47003174 C-4.34470777 294.11463566 0.68841389 292.84023717 4.3984375 288.82104492 C6.73836766 286.67610894 8.78185639 286.62937322 11.8984375 286.44604492 C17.95346713 287.49909355 21.57894688 291.38430168 25.8984375 295.44604492 C26.8678125 296.22979492 27.8371875 297.01354492 28.8359375 297.82104492 C31.72211676 301.49436397 32.08518184 304.83685502 31.8984375 309.44604492 C31.25405033 311.12145156 30.58597051 312.78787708 29.8984375 314.44604492 C29.05864068 321.2353882 29.71051312 326.91440149 33.8984375 332.44604492 C35.97659121 334.49210359 38.11448764 336.36846945 40.38671875 338.19604492 C42.51113502 340.099099 44.26784786 341.97702172 46.11352539 344.13647461 C49.58480923 348.13301089 53.22047326 351.91344677 56.96875 355.64916992 C57.61286835 356.294245 58.25698669 356.93932007 58.92062378 357.60394287 C60.26893483 358.95292847 61.61848557 360.30067607 62.96923828 361.6472168 C65.02883416 363.70142747 67.08299924 365.76096109 69.13671875 367.82104492 C70.45540844 369.13907422 71.77440808 370.4567935 73.09375 371.77416992 C73.70219757 372.38464172 74.31064514 372.99511353 74.93753052 373.62408447 C78.11802363 376.78722208 81.35445589 379.68433097 84.8984375 382.44604492 C86.03660473 383.68651932 87.14285694 384.95723585 88.2109375 386.25854492 C94.11870635 393.12744753 100.29319344 399.71517421 109.72265625 400.75854492 C118.0820079 401.09417761 123.23692076 399.44183135 129.6484375 394.19604492 C134.24673317 388.57590577 137.32573075 382.11620389 137.1640625 374.74682617 C135.56666199 360.91051883 123.11717915 351.49717949 113.8359375 342.25854492 C112.98966797 341.4084082 112.14339844 340.55827148 111.27148438 339.68237305 C107.51063188 335.92731986 103.73704883 332.24769 99.703125 328.78588867 C95.87686611 325.49550698 92.4819038 321.92260466 89.0859375 318.19604492 C83.16856835 311.7983327 77.11863117 305.55027542 70.9609375 299.38354492 C70.18065186 298.59882813 69.40036621 297.81411133 68.59643555 297.00561523 C65.0783004 293.49611493 61.53325725 290.08143295 57.76171875 286.84448242 C53.89570228 283.51348862 50.45864958 279.9009344 47.0234375 276.13354492 C41.28524899 269.93147104 35.43096906 263.86286788 29.4609375 257.88354492 C28.7282666 257.14644287 27.9955957 256.40934082 27.24072266 255.64990234 C23.84995434 252.2679862 20.4234941 248.99153614 16.7890625 245.87182617 C12.93694715 242.54901633 9.50933111 238.95270199 6.0859375 235.19604492 C0.16856835 228.7983327 -5.88136883 222.55027542 -12.0390625 216.38354492 C-13.20949097 215.20646973 -13.20949097 215.20646973 -14.40356445 214.00561523 C-17.92298801 210.49482968 -21.46948935 207.07897087 -25.2421875 203.84057617 C-29.08488986 200.52953863 -32.50063917 196.94176111 -35.9140625 193.19604492 C-41.83143165 186.7983327 -47.88136883 180.55027542 -54.0390625 174.38354492 C-55.20949097 173.20646973 -55.20949097 173.20646973 -56.40356445 172.00561523 C-59.9216996 168.49611493 -63.46674275 165.08143295 -67.23828125 161.84448242 C-71.10429772 158.51348862 -74.54135042 154.9009344 -77.9765625 151.13354492 C-83.71475101 144.93147104 -89.56903094 138.86286788 -95.5390625 132.88354492 C-96.2717334 132.14644287 -97.0044043 131.40934082 -97.75927734 130.64990234 C-101.82797977 126.59182196 -106.00411785 122.73378838 -110.3581543 118.984375 C-113.14985605 116.52106276 -115.63111151 113.78855779 -118.14453125 111.04760742 C-122.61219895 107.39143225 -125.57056423 107.91400826 -129.79003906 111.84155273 Z M-60.1015625 293.88354492 C-61.28848873 294.99873924 -62.47599351 296.11331811 -63.6640625 297.22729492 C-64.25058594 297.77901367 -64.83710938 298.33073242 -65.44140625 298.89916992 C-67.62596662 300.93466617 -69.86185286 302.90906406 -72.1015625 304.88354492 C-76.1214939 308.47791355 -79.9340105 312.24106642 -83.7265625 316.07104492 C-88.35830603 320.74338276 -93.05261946 325.22179313 -98.1015625 329.44604492 C-99.12150974 330.306229 -100.14100119 331.16695367 -101.16015625 332.02807617 C-101.7111499 332.49358887 -102.26214355 332.95910156 -102.82983398 333.4387207 C-114.45352164 343.01987795 -114.45352164 343.01987795 -124.76953125 353.93823242 C-126.1015625 355.44604492 -126.1015625 355.44604492 -128.6640625 357.32104492 C-133.54105734 361.57278401 -136.18753866 367.0677481 -137.1015625 373.44604492 C-137.45956661 380.67325281 -135.44114876 386.15407429 -130.9140625 391.75854492 C-126.04870231 396.88966008 -120.40188833 400.00954677 -113.2265625 400.52807617 C-101.94571736 400.09260237 -95.51991472 393.18884627 -88.203125 385.36401367 C-86.3304621 383.33987398 -84.48439245 381.29747689 -82.64453125 379.24291992 C-80.20422497 376.55895786 -77.67017932 374.00641579 -75.1015625 371.44604492 C-73.7146127 369.93610146 -72.33964477 368.41506892 -70.9765625 366.88354492 C-66.66543869 362.06564993 -62.3082943 357.29199167 -57.93359375 352.53198242 C-56.02899772 350.45939193 -54.13111137 348.38094757 -52.23828125 346.29760742 C-48.23723803 341.90072803 -44.24101264 337.52977268 -39.9765625 333.38354492 C-35.26687976 328.75122863 -31.22490324 323.59630132 -27.1015625 318.44604492 C-25.4442337 316.43797909 -23.77369226 314.4418127 -22.1015625 312.44604492 C-22.72160156 312.18694336 -23.34164062 311.9278418 -23.98046875 311.66088867 C-33.21914722 307.26343909 -39.53088959 300.45930658 -46.44506836 293.06835938 C-52.50934057 287.12921585 -54.29694649 288.35640413 -60.1015625 293.88354492 Z " fill="#FE9635" transform="translate(245.1015625,-0.446044921875)"/>
<path d="M0 0 C0.83850998 -0.00819763 1.67701996 -0.01639526 2.54093933 -0.02484131 C5.23189043 -0.04381478 7.92227344 -0.04391786 10.61328125 -0.0390625 C11.52974426 -0.03984802 12.44620728 -0.04063354 13.39044189 -0.04144287 C26.44702451 -0.02800753 38.91986092 0.62517489 51.64233398 3.80615234 C54.27354272 4.41662203 56.91420003 4.85930867 59.578125 5.3046875 C63.85861039 6.06345325 67.62670092 7.17870159 71.61328125 8.9609375 C73.13501953 9.62996094 73.13501953 9.62996094 74.6875 10.3125 C75.42613281 10.65023437 76.16476562 10.98796875 76.92578125 11.3359375 C76.92578125 11.9959375 76.92578125 12.6559375 76.92578125 13.3359375 C77.75078125 13.5834375 78.57578125 13.8309375 79.42578125 14.0859375 C82.05717247 15.02572008 84.23731136 15.97985896 86.67578125 17.2734375 C91.23278045 19.63141964 95.98778226 21.00024925 100.92578125 22.3359375 C101.25578125 21.3459375 101.58578125 20.3559375 101.92578125 19.3359375 C102.58578125 19.6659375 103.24578125 19.9959375 103.92578125 20.3359375 C104.25578125 19.0159375 104.58578125 17.6959375 104.92578125 16.3359375 C106.24578125 16.6659375 107.56578125 16.9959375 108.92578125 17.3359375 C108.3104805 17.94457642 107.69517975 18.55321533 107.06123352 19.18029785 C101.24231465 24.93891513 95.43078223 30.70486551 89.6272707 36.47901154 C86.6439184 39.44675886 83.65786222 42.41167171 80.6652832 45.37011719 C77.77326797 48.22935402 74.88880693 51.09602001 72.00926781 53.96781921 C70.91358227 55.05799428 69.81527511 56.14554148 68.71422768 57.2303009 C58.49623654 67.2245388 58.49623654 67.2245388 52.17578125 79.8984375 C51.9540625 80.58035156 51.73234375 81.26226562 51.50390625 81.96484375 C50.21466351 87.2524812 49.86049835 92.28357536 49.75 97.71484375 C49.72615234 98.88337891 49.70230469 100.05191406 49.67773438 101.25585938 C49.63469969 103.68797108 49.60348529 106.12032014 49.58398438 108.55273438 C49.31994623 119.67303846 49.31994623 119.67303846 44.92578125 124.3359375 C42.83806814 126.29912397 40.66874126 128.11576747 38.42578125 129.8984375 C34.42063229 133.10891404 31.00185542 136.16665069 27.92578125 140.3359375 C28.78300781 141.109375 29.64023437 141.8828125 30.5234375 142.6796875 C36.22637492 147.86417607 41.78476518 152.92303619 46.55859375 159.0078125 C47.96674196 160.68433034 47.96674196 160.68433034 50.92578125 160.3359375 C52.7680984 158.35671148 54.44516993 156.39163728 56.11328125 154.2734375 C57.98975598 151.9012902 59.92845921 149.60715326 61.92578125 147.3359375 C62.43923096 146.68536377 62.95268066 146.03479004 63.48168945 145.36450195 C67.14234381 141.36500176 70.15238233 139.96755205 75.61738586 139.629776 C79.32782593 139.53346723 83.02785364 139.57040246 86.73828125 139.6484375 C103.54700865 139.88518014 116.9253076 137.13441236 129.53244209 125.16276646 C132.4046095 122.35521337 135.22886535 119.50238363 138.046875 116.640625 C139.28012187 115.40244411 140.5141915 114.1650822 141.7490387 112.92849731 C144.3191992 110.35074239 146.88280164 107.76671198 149.44116211 105.17724609 C152.71646878 101.86217989 156.00262114 98.55814154 159.29302883 95.25806999 C162.44368564 92.09743865 165.58938097 88.9318897 168.734375 85.765625 C169.33131102 85.16529324 169.92824703 84.56496147 170.54327202 83.94643784 C172.23266194 82.24544546 173.91853602 80.54105021 175.60327148 78.83544922 C176.10041656 78.33561523 176.59756165 77.83578125 177.10977173 77.32080078 C179.6011568 74.79073493 181.87908187 72.23988939 183.92578125 69.3359375 C184.25578125 70.6559375 184.58578125 71.9759375 184.92578125 73.3359375 C183.44078125 73.8309375 183.44078125 73.8309375 181.92578125 74.3359375 C181.59578125 75.3259375 181.26578125 76.3159375 180.92578125 77.3359375 C180.26578125 77.3359375 179.60578125 77.3359375 178.92578125 77.3359375 C178.92578125 78.3259375 178.92578125 79.3159375 178.92578125 80.3359375 C178.26578125 80.3359375 177.60578125 80.3359375 176.92578125 80.3359375 C176.88453125 80.9134375 176.84328125 81.4909375 176.80078125 82.0859375 C175.49252864 85.45001563 172.91156161 86.44697441 169.92578125 88.3359375 C169.26578125 89.3259375 168.60578125 90.3159375 167.92578125 91.3359375 C166.44078125 92.3259375 166.44078125 92.3259375 164.92578125 93.3359375 C164.92578125 94.6559375 164.92578125 95.9759375 164.92578125 97.3359375 C165.58578125 97.3359375 166.24578125 97.3359375 166.92578125 97.3359375 C173.14938717 110.61296345 176.46105614 123.88389763 178.9753418 138.28466797 C179.59618431 141.91899886 179.59618431 141.91899886 180.92578125 145.3359375 C181.03985685 146.68894244 181.09507 148.04718452 181.11865234 149.40478516 C181.14239929 150.67101715 181.14239929 150.67101715 181.16662598 151.96282959 C181.17738159 152.88259583 181.18813721 153.80236206 181.19921875 154.75 C181.21801086 156.18088959 181.21801086 156.18088959 181.23718262 157.64068604 C181.51610208 184.00178132 180.14618153 206.76229747 169.92578125 231.3359375 C169.41038126 232.69995033 168.90008433 234.06590072 168.39453125 235.43359375 C165.29747355 243.75856503 161.4427205 251.69286798 156.92578125 259.3359375 C156.36632812 260.30402344 155.806875 261.27210938 155.23046875 262.26953125 C154.63492187 263.26082031 154.039375 264.25210937 153.42578125 265.2734375 C152.87921875 266.18996094 152.33265625 267.10648437 151.76953125 268.05078125 C149.66213964 270.6626967 148.04712422 271.26576277 144.92578125 272.3359375 C144.15335856 274.17294539 144.15335856 274.17294539 143.92578125 276.3359375 C143.27884475 278.0103614 142.61618699 279.67896371 141.92578125 281.3359375 C142.41256348 281.74424805 142.8993457 282.15255859 143.40087891 282.57324219 C145.2690945 284.73278695 145.31126117 285.72171455 145.32421875 288.5390625 C145.32808594 289.35503906 145.33195312 290.17101562 145.3359375 291.01171875 C145.31853516 292.28595703 145.31853516 292.28595703 145.30078125 293.5859375 C145.31238281 294.41996094 145.32398438 295.25398438 145.3359375 296.11328125 C145.31008308 301.60303672 144.42476909 305.44373909 141.92578125 310.3359375 C140.93578125 310.3359375 139.94578125 310.3359375 138.92578125 310.3359375 C139.21453125 309.6346875 139.50328125 308.9334375 139.80078125 308.2109375 C140.17203125 307.2621875 140.54328125 306.3134375 140.92578125 305.3359375 C141.29703125 304.4078125 141.66828125 303.4796875 142.05078125 302.5234375 C144.20952755 294.65943314 142.84532678 288.36296803 138.92578125 281.3359375 C136.25618514 277.68314867 133.11180624 274.53305074 129.92578125 271.3359375 C129.21808594 270.61599609 128.51039063 269.89605469 127.78125 269.15429688 C117.57559902 258.64644123 117.57559902 258.64644123 106.796875 248.7421875 C102.75106146 245.25919984 99.15773279 241.45263728 95.55078125 237.5234375 C89.61638038 231.14268126 83.58268178 224.87745217 77.42578125 218.7109375 C76.69697754 217.97770264 75.96817383 217.24446777 75.21728516 216.48901367 C71.85755427 213.13811812 68.46255731 209.89337842 64.859375 206.8046875 C60.77271731 203.27935635 57.13584784 199.43237963 53.48828125 195.4609375 C47.73379259 189.27527284 41.89491251 183.18999195 35.92578125 177.2109375 C35.24459229 176.52531738 34.56340332 175.83969727 33.86157227 175.13330078 C30.6292922 171.91010348 27.35264163 168.80348023 23.88671875 165.83203125 C19.81406078 162.3148259 16.18660541 158.48408941 12.55078125 154.5234375 C6.61638038 148.14268126 0.58268178 141.87745217 -5.57421875 135.7109375 C-6.30302246 134.97770264 -7.03182617 134.24446777 -7.78271484 133.48901367 C-11.14373172 130.1368355 -14.54018388 126.89090607 -18.14453125 123.80078125 C-22.20783963 120.29545538 -25.82343356 116.47315355 -29.44921875 112.5234375 C-35.38361962 106.14268126 -41.41731822 99.87745217 -47.57421875 93.7109375 C-48.30302246 92.97770264 -49.03182617 92.24446777 -49.78271484 91.48901367 C-53.14244573 88.13811812 -56.53744269 84.89337842 -60.140625 81.8046875 C-64.22728269 78.27935635 -67.86415216 74.43237963 -71.51171875 70.4609375 C-77.26620741 64.27527284 -83.10508749 58.18999195 -89.07421875 52.2109375 C-89.75540771 51.52531738 -90.43659668 50.83969727 -91.13842773 50.13330078 C-95.06930418 46.21347017 -99.11796618 42.49386994 -103.3203125 38.8671875 C-105.32094195 37.1205355 -107.21593341 35.29543712 -109.07421875 33.3984375 C-109.65171875 32.81191406 -110.22921875 32.22539063 -110.82421875 31.62109375 C-111.23671875 31.19699219 -111.64921875 30.77289063 -112.07421875 30.3359375 C-109.07421875 30.3359375 -109.07421875 30.3359375 -106.91796875 32.3046875 C-105.35546875 33.9921875 -103.79296875 35.6796875 -102.23046875 37.3671875 C-100.19161386 39.67307218 -100.19161386 39.67307218 -97.07421875 39.3359375 C-96.03423879 38.37758387 -95.04290055 37.36630422 -94.07421875 36.3359375 C-92.2640669 34.91017031 -90.42831011 33.51657749 -88.57421875 32.1484375 C-87.61515625 31.43300781 -86.65609375 30.71757813 -85.66796875 29.98046875 C-83.07421875 28.3359375 -83.07421875 28.3359375 -80.07421875 28.3359375 C-80.07421875 27.6759375 -80.07421875 27.0159375 -80.07421875 26.3359375 C-79.29046875 26.2534375 -78.50671875 26.1709375 -77.69921875 26.0859375 C-74.95317668 25.63312752 -74.95317668 25.63312752 -74.01171875 23.4609375 C-73.70234375 22.7596875 -73.39296875 22.0584375 -73.07421875 21.3359375 C-70.34870388 18.71136763 -67.7713488 17.97071684 -64.18530273 16.98291016 C-60.00827875 15.70279988 -55.99178652 13.98401535 -51.94921875 12.3359375 C-51.06878906 11.98015625 -50.18835938 11.624375 -49.28125 11.2578125 C-47.99927734 10.73960938 -47.99927734 10.73960938 -46.69140625 10.2109375 C-45.87349609 9.8809375 -45.05558594 9.5509375 -44.21289062 9.2109375 C-42.64338427 8.56880157 -41.08557058 7.89789031 -39.53515625 7.2109375 C-35.71948833 5.85425557 -31.78959148 5.13025316 -27.82421875 4.3359375 C-26.19390615 4.00311451 -24.56369733 3.66978271 -22.93359375 3.3359375 C-22.21655273 3.1915625 -21.49951172 3.0471875 -20.76074219 2.8984375 C-19.19687491 2.57099746 -17.6360173 2.22663345 -16.08573914 1.8399353 C-10.65709053 0.52266882 -5.57725661 0.01712459 0 0 Z " fill="#FEC852" transform="translate(238.07421875,80.6640625)"/>
<path d="M0 0 C2.27191444 2.93370333 4.24738001 5.96366434 6.1875 9.125 C11.03509482 16.7909639 16.50836964 23.66670209 23 30 C24.3391223 31.49483419 25.67161201 32.99561869 27 34.5 C31.27332281 39.2878366 35.76949595 43.802191 40.33081055 48.3112793 C43.85065354 51.80623608 47.17847485 55.39674637 50.3984375 59.171875 C54.48870198 63.84076227 58.93955505 68.09837599 63.64892578 72.13354492 C67.95385292 75.89380087 71.93388357 79.90598985 75.90234375 84.015625 C77.38400422 85.52939147 78.8664498 87.0423898 80.34960938 88.5546875 C82.65207659 90.90658288 84.94957799 93.26252608 87.23413086 95.63183594 C89.46376768 97.94051418 91.71233965 100.22928039 93.96484375 102.515625 C94.63700424 103.22189026 95.30916473 103.92815552 96.00169373 104.65582275 C101.02958576 109.7120042 106.15393756 112.95297728 113.47203064 113.02398682 C118.75685473 112.66859074 123.78997639 111.39419225 127.5 107.375 C129.83993016 105.23006402 131.88341889 105.1833283 135 105 C141.05836057 106.05362792 144.68237048 109.93129942 149 114 C149.59683594 114.48726563 150.19367188 114.97453125 150.80859375 115.4765625 C154.03779686 118.24887596 155.38685334 120.29866406 156 124.5625 C156.19155317 128.28233902 155.42448161 130.56448554 154 134 C153.16020318 140.78934328 153.81207562 146.46835656 158 152 C160.07815371 154.04605867 162.21605014 155.92242453 164.48828125 157.75 C166.50684829 159.55823424 168.14161201 161.27981348 169.8828125 163.33203125 C175.1298939 169.43348591 180.89254638 175.04138586 186.58862305 180.71899414 C188.56480114 182.68979488 190.53555548 184.66590656 192.50585938 186.64257812 C193.77572103 187.91177922 195.04589272 189.18067021 196.31640625 190.44921875 C197.18852501 191.32437386 197.18852501 191.32437386 198.07826233 192.21720886 C201.57246965 195.69166153 205.19287992 198.87262441 209 202 C210.18166126 203.28033861 211.33271365 204.59026677 212.4375 205.9375 C217.63020998 211.98615118 222.47137002 216.23438082 230 219 C230 219.33 230 219.66 230 220 C227.36 219.67 224.72 219.34 222 219 C222 218.34 222 217.68 222 217 C217.24434875 216.66821038 214.97113067 217.46288874 211 220 C210.34 219.67 209.68 219.34 209 219 C209 219.66 209 220.32 209 221 C207.02 221 205.04 221 203 221 C203 221.66 203 222.32 203 223 C192.16253017 227.50762019 181.25739605 231.65844676 170 235 C168.95803467 235.32194336 168.95803467 235.32194336 167.89501953 235.65039062 C155.37173726 239.35707037 142.69862338 239.36700574 129.75 239.375 C128.89541199 239.37699402 128.04082397 239.37898804 127.16033936 239.38104248 C113.01465461 239.37731163 98.68076121 239.02857191 85.125 234.5625 C84.41504883 234.34078125 83.70509766 234.1190625 82.97363281 233.890625 C81.5899106 233.45825132 80.20763339 233.02121407 78.82714844 232.57861328 C76.48191106 231.83593389 74.11682119 231.17021636 71.75 230.5 C65.70562174 228.69086948 59.86105782 226.32421258 54 224 C54 223.34 54 222.68 54 222 C52.7625 221.6596875 52.7625 221.6596875 51.5 221.3125 C46.16922619 219.31345982 41.71620023 216.14413349 37 213 C37 212.34 37 211.68 37 211 C34.2553656 210.41223366 34.2553656 210.41223366 31 211 C29.27618983 212.6460443 27.89282171 214.43214665 26.42578125 216.30859375 C24.46686084 218.63246371 22.96649335 219.36432285 20 220 C17.30888018 220.13581352 14.69897819 220.09149079 12 220 C12 219.67 12 219.34 12 219 C12.60585937 218.88785156 13.21171875 218.77570313 13.8359375 218.66015625 C25.17180264 215.99186799 32.03896076 207.25845217 39.42163086 198.81079102 C40.57592529 197.50544758 41.78380191 196.24786991 43 195 C43.66 195 44.32 195 45 195 C45.24878906 194.4328125 45.49757812 193.865625 45.75390625 193.28125 C47.19546302 190.64216174 48.8990283 188.71172336 50.9375 186.5 C51.74316406 185.62085938 52.54882812 184.74171875 53.37890625 183.8359375 C54.24386719 182.90007812 55.10882813 181.96421875 56 181 C57.3352033 179.54091185 58.67039701 178.08181471 60.00488281 176.62207031 C61.39047943 175.10808626 62.77893364 173.59676692 64.16796875 172.0859375 C66.07256478 170.01334701 67.97045113 167.93490265 69.86328125 165.8515625 C73.86432447 161.45468311 77.86054986 157.08372776 82.125 152.9375 C86.83468274 148.30518371 90.87665926 143.1502564 95 138 C96.6573288 135.99193417 98.32787024 133.99576778 100 132 C99.45214844 131.81308594 98.90429688 131.62617188 98.33984375 131.43359375 C89.28085621 127.67742818 83.2480702 120.66201276 76.67236328 113.63818359 C74.8958273 111.89795637 73.01785522 110.44949175 71 109 C67.60655558 110.48848812 65.21770033 112.4326862 62.5 114.9375 C61.62085938 115.74445313 60.74171875 116.55140625 59.8359375 117.3828125 C58.90007812 118.24648438 57.96421875 119.11015625 57 120 C56.04351562 120.86367188 55.08703125 121.72734375 54.1015625 122.6171875 C48.84698031 127.3662546 43.73128703 132.21432005 38.75 137.25 C34.32805859 141.71490023 29.80833081 145.9548963 25 150 C23.89664076 150.94343221 22.79382436 151.88749948 21.69140625 152.83203125 C20.50291004 153.84671254 19.31410675 154.86103426 18.125 155.875 C17.55273682 156.36427979 16.98047363 156.85355957 16.39086914 157.35766602 C12.23083897 160.88458051 12.23083897 160.88458051 10 162 C10 159.36 10 156.72 10 154 C9.34 154 8.68 154 8 154 C-4.91889956 109.46082444 -14.71819862 57.04481994 1.14453125 11.73046875 C2.21250253 8.32173849 1.49304686 7.15198781 0 4 C0 2.68 0 1.36 0 0 Z " fill="#FEC851" transform="translate(122,180)"/>
<path d="M0 0 C2.27191444 2.93370333 4.24738001 5.96366434 6.1875 9.125 C11.03509482 16.7909639 16.50836964 23.66670209 23 30 C24.3391223 31.49483419 25.67161201 32.99561869 27 34.5 C31.27332281 39.2878366 35.76949595 43.802191 40.33081055 48.3112793 C43.85065354 51.80623608 47.17847485 55.39674637 50.3984375 59.171875 C54.48870198 63.84076227 58.93955505 68.09837599 63.64892578 72.13354492 C67.95385292 75.89380087 71.93388357 79.90598985 75.90234375 84.015625 C77.38400422 85.52939147 78.8664498 87.0423898 80.34960938 88.5546875 C82.65207659 90.90658288 84.94957799 93.26252608 87.23413086 95.63183594 C89.46376768 97.94051418 91.71233965 100.22928039 93.96484375 102.515625 C94.63700424 103.22189026 95.30916473 103.92815552 96.00169373 104.65582275 C101.27499335 109.95879258 106.37971794 112.52466234 113.84765625 113.29296875 C114.94400391 113.24076172 114.94400391 113.24076172 116.0625 113.1875 C117.361875 113.125625 118.66125 113.06375 120 113 C116.93796616 118.28896754 112.89361715 122.20662881 108.5390625 126.46484375 C105.70104256 129.2984975 103.06814812 132.25394852 100.47265625 135.30859375 C99.04541597 136.94783789 97.55487662 138.48225476 96 140 C95.34 139.67 94.68 139.34 94 139 C96.97 135.535 96.97 135.535 100 132 C98.659375 131.484375 97.31875 130.96875 95.9375 130.4375 C88.1343528 126.60848785 82.53351471 119.89876163 76.67236328 113.63818359 C74.8958273 111.89795637 73.01785522 110.44949175 71 109 C67.60655558 110.48848812 65.21770033 112.4326862 62.5 114.9375 C61.62085938 115.74445313 60.74171875 116.55140625 59.8359375 117.3828125 C58.90007812 118.24648438 57.96421875 119.11015625 57 120 C56.04351562 120.86367188 55.08703125 121.72734375 54.1015625 122.6171875 C48.84698031 127.3662546 43.73128703 132.21432005 38.75 137.25 C34.32805859 141.71490023 29.80833081 145.9548963 25 150 C23.89664076 150.94343221 22.79382436 151.88749948 21.69140625 152.83203125 C20.50291004 153.84671254 19.31410675 154.86103426 18.125 155.875 C17.55273682 156.36427979 16.98047363 156.85355957 16.39086914 157.35766602 C12.23083897 160.88458051 12.23083897 160.88458051 10 162 C10 159.36 10 156.72 10 154 C9.34 154 8.68 154 8 154 C-4.91889956 109.46082444 -14.71819862 57.04481994 1.14453125 11.73046875 C2.21250253 8.32173849 1.49304686 7.15198781 0 4 C0 2.68 0 1.36 0 0 Z " fill="#FEC852" transform="translate(122,180)"/>
<path d="M0 0 C0.33 0 0.66 0 1 0 C1.22042969 1.36318359 1.22042969 1.36318359 1.4453125 2.75390625 C3.29869283 13.13922706 6.20664704 22.73161741 11.1171875 32.140625 C12.12572494 34.2648012 12.59887127 36.25994053 13.0625 38.5625 C13.58847257 41.14020029 14.16502551 43.49507652 15 46 C14.51611328 48.05859375 14.51611328 48.05859375 13.6953125 50.4375 C11.85032263 56.2222464 10.82490585 62.01179355 9.875 68 C9.70613281 69.01578125 9.53726563 70.0315625 9.36328125 71.078125 C7.76443374 80.89781836 6.82196634 90.48604751 6.875 100.4375 C6.87910889 101.39197021 6.88321777 102.34644043 6.88745117 103.32983398 C7.09615151 130.38682257 10.04293917 157.43412121 19.10131836 183.12329102 C20 186 20 186 20 190 C20.66 190 21.32 190 22 190 C22.36167332 193.07422321 22.49348835 195.9351776 22 199 C19.4375 201.5625 19.4375 201.5625 17.79296875 202.671875 C14.8925739 204.82031563 12.794667 207.64884044 10.515625 210.42578125 C10.01546875 210.94527344 9.5153125 211.46476563 9 212 C8.34 212 7.68 212 7 212 C5.65839214 210.19638149 4.40153103 208.32934567 3.1875 206.4375 C0.94550566 202.97923387 -1.28073303 199.55004837 -3.75 196.25 C-5.77098039 193.3308061 -7.31777038 190.54859381 -8.83203125 187.359375 C-10.30365871 184.38658909 -11.942124 181.5192565 -13.5625 178.625 C-16.11128762 173.92330029 -17.98207978 169.51804462 -19.328125 164.35546875 C-20.00612534 161.97852568 -20.91715082 159.87369261 -21.9375 157.625 C-28.30410993 142.22270136 -29.18703665 124.57568968 -29.18530273 108.13647461 C-29.18747879 105.83493245 -29.20565823 103.53387901 -29.22460938 101.23242188 C-29.30464459 80.51582791 -25.97073375 56.04862648 -15 38 C-14.3995533 36.32562661 -13.83795539 34.63689964 -13.3125 32.9375 C-11.31394745 27.19846582 -8.29486759 22.57442559 -4.8046875 17.62890625 C-1.86712628 13.34973158 -0.74735858 10.46302011 -0.375 5.25 C-0.30023438 4.26515625 -0.22546875 3.2803125 -0.1484375 2.265625 C-0.09945312 1.51796875 -0.05046875 0.7703125 0 0 Z " fill="#FEB23C" transform="translate(110,144)"/>
<path d="M0 0 C0.495 0.99 0.495 0.99 1 2 C0.67 2.99 0.34 3.98 0 5 C-0.66 5 -1.32 5 -2 5 C-2.2475 5.556875 -2.495 6.11375 -2.75 6.6875 C-4 9 -4 9 -6.25 11.375 C-8.34795755 13.88345533 -8.34795755 13.88345533 -7.5625 16.875 C-5.74976002 20.50047996 -3.88305605 24.10897971 -1 27 C1.08506244 27.73327024 1.08506244 27.73327024 3 28 C3 27.34 3 26.68 3 26 C5.375 24.3125 5.375 24.3125 8 23 C8.66 23.33 9.32 23.66 10 24 C4.17020862 29.85293672 -1.66226018 35.70318649 -7.49818993 41.5500021 C-10.20780556 44.26484175 -12.91648089 46.98060604 -15.62304688 49.69848633 C-18.23386711 52.32015248 -20.84710521 54.93938568 -23.46205521 57.55693245 C-24.46049569 58.55722409 -25.45805396 59.55839709 -26.45472336 60.56045341 C-27.84819087 61.96115386 -29.24505976 63.35846801 -30.64208984 64.75561523 C-31.43706879 65.55281479 -32.23204773 66.35001434 -33.05111694 67.17137146 C-35.69542055 69.65251009 -36.625523 69.97173758 -40.3125 70.25 C-45.43458911 69.90273972 -47.65406415 68.27318256 -51.3125 64.8125 C-53.10489922 61.82516797 -53.76780231 59.58278672 -53.56617737 56.07946777 C-51.38985507 48.08622689 -40.95701382 40.8283914 -35.25390625 35.15625 C-34.23235953 34.13657291 -33.21103674 33.11667144 -32.18992615 32.09655762 C-29.52733563 29.43774939 -26.86175401 26.78196042 -24.19549561 24.12683105 C-21.46507329 21.40671607 -18.73754926 18.68369815 -16.00976562 15.9609375 C-10.675978 10.63781137 -5.33902084 5.31787782 0 0 Z " fill="#FCC956" transform="translate(391,127)"/>
<path d="M0 0 C0.495 1.98 0.495 1.98 1 4 C0.01 4 -0.98 4 -2 4 C-2.04125 4.556875 -2.0825 5.11375 -2.125 5.6875 C-3 8 -3 8 -6.0625 10.5 C-7.031875 11.325 -8.00125 12.15 -9 13 C-9 14.32 -9 15.64 -9 17 C-8.40445313 17.2578125 -7.80890625 17.515625 -7.1953125 17.78125 C-4.82107771 19.09933053 -3.57403559 20.40066806 -1.875 22.5 C-0.29700469 24.4295694 1.23458294 26.23458294 3 28 C-2.4922614 33.54287498 -7.9922729 39.07797004 -13.49780273 44.60766602 C-15.37070213 46.49063738 -17.24180449 48.3753979 -19.11108398 50.26196289 C-21.79463419 52.96970845 -24.4845319 55.67100304 -27.17578125 58.37109375 C-28.01337479 59.21900986 -28.85096832 60.06692596 -29.71394348 60.9405365 C-30.88481758 62.11163719 -30.88481758 62.11163719 -32.0793457 63.30639648 C-32.76551468 63.99700668 -33.45168365 64.68761688 -34.15864563 65.39915466 C-37.75204001 68.52319679 -41.43523995 68.31481104 -46 68 C-49.83913522 66.29371768 -51.41483564 64.83387382 -53 61 C-53.44376064 55.83102793 -53.02964279 53.36623821 -49.88424683 49.19259644 C-46.92008152 45.88813388 -43.7235105 42.82339292 -40.52734375 39.74609375 C-39.36117846 38.59486564 -38.19677904 37.44184625 -37.03407288 36.28712463 C-33.9821221 33.26559082 -30.90691824 30.26886211 -27.82611084 27.27679443 C-24.68142027 24.21421969 -21.55950171 21.12861997 -18.43554688 18.04492188 C-12.3123284 12.0072751 -6.16433382 5.99566147 0 0 Z " fill="#FCC854" transform="translate(365,101)"/>
<path d="M0 0 C3.74468564 3.10452729 7.3008209 6.23073297 10.6484375 9.76171875 C11.56882813 10.72754883 11.56882813 10.72754883 12.5078125 11.71289062 C13.75480209 13.03162124 14.99181585 14.35985541 16.21875 15.69726562 C21.40852798 21.08790321 26.38896323 23.5256135 33.84765625 24.29296875 C34.94400391 24.24076172 34.94400391 24.24076172 36.0625 24.1875 C37.361875 24.125625 38.66125 24.06375 40 24 C36.93796616 29.28896754 32.89361715 33.20662881 28.5390625 37.46484375 C25.70104256 40.2984975 23.06814812 43.25394852 20.47265625 46.30859375 C19.04541597 47.94783789 17.55487662 49.48225476 16 51 C15.34 50.67 14.68 50.34 14 50 C15.98 47.69 17.96 45.38 20 43 C18.659375 42.484375 17.31875 41.96875 15.9375 41.4375 C8.1343528 37.60848785 2.53351471 30.89876163 -3.32763672 24.63818359 C-7.03332323 20.90944 -7.03332323 20.90944 -12 20 C-12 18 -12 18 -9.8125 15.6875 C-8.884375 14.800625 -7.95625 13.91375 -7 13 C-6.13375 12.0925 -5.2675 11.185 -4.375 10.25 C-2 8 -2 8 1 7 C0.67 4.69 0.34 2.38 0 0 Z " fill="#FAEFC2" transform="translate(202,269)"/>
<path d="M0 0 C4.51510189 0.8650855 7.07174935 3.47413428 10.3125 6.5625 C11.17645386 7.37352173 11.17645386 7.37352173 12.05786133 8.20092773 C17.20243736 13.08286993 22.05615322 18.08422984 26 24 C25.278125 24.70125 24.55625 25.4025 23.8125 26.125 C22.87127299 27.07967311 21.93398861 28.03824416 21 29 C20.28457031 29.72123047 20.28457031 29.72123047 19.5546875 30.45703125 C17.0541272 33.16478083 16.03146533 34.66017439 15.6875 38.375 C15.790625 39.24125 15.89375 40.1075 16 41 C10.87786327 36.66485824 5.90167819 32.2074118 1 27.625 C0.32710938 27.00367188 -0.34578125 26.38234375 -1.0390625 25.7421875 C-5.67486368 21.41066671 -9.90989748 16.84900826 -14 12 C-13.38125 11.72285156 -12.7625 11.44570312 -12.125 11.16015625 C-9.77275469 10.05848492 -9.77275469 10.05848492 -8 7.4375 C-5.93381319 4.91933482 -5.15497657 4.3380332 -2 4 C-2 3.34 -2 2.68 -2 2 C-1.34 2 -0.68 2 0 2 C0 1.34 0 0.68 0 0 Z " fill="#FAEFC4" transform="translate(262,220)"/>
<path d="M0 0 C0.5775 0.226875 1.155 0.45375 1.75 0.6875 C1.069375 0.8525 0.38875 1.0175 -0.3125 1.1875 C-7.91183952 5.0680138 -12.56742127 13.82490838 -17.25 20.6875 C-18.90649267 23.02828688 -20.57843211 25.35743566 -22.25 27.6875 C-28.97287629 27.83364948 -32.13786869 24.63752988 -36.87109375 20.12109375 C-39.83455238 17.08950964 -42.58480095 13.98393041 -45.25 10.6875 C-40.89358857 12.5392185 -38.32195016 15.58877449 -35.15234375 19.0078125 C-33.29815458 21.01843807 -33.29815458 21.01843807 -30.25 20.6875 C-29.21002004 19.72914637 -28.2186818 18.71786672 -27.25 17.6875 C-25.43984815 16.26173281 -23.60409136 14.86813999 -21.75 13.5 C-20.31140625 12.42685547 -20.31140625 12.42685547 -18.84375 11.33203125 C-16.25 9.6875 -16.25 9.6875 -13.25 9.6875 C-13.25 9.0275 -13.25 8.3675 -13.25 7.6875 C-12.46625 7.605 -11.6825 7.5225 -10.875 7.4375 C-8.12895793 6.98469002 -8.12895793 6.98469002 -7.1875 4.8125 C-6.878125 4.11125 -6.56875 3.41 -6.25 2.6875 C-3.0339196 -0.42137772 -3.0339196 -0.42137772 0 0 Z " fill="#FDB953" transform="translate(171.25,99.3125)"/>
<path d="M0 0 C0.495 1.485 0.495 1.485 1 3 C0.54625 3.391875 0.0925 3.78375 -0.375 4.1875 C-2.16065975 5.94575256 -2.16065975 5.94575256 -2.875 8.5 C-4 11 -4 11 -6.3125 12.375 C-10.74589707 15.0556587 -13.37553184 19.12659551 -15 24 C-16.55859375 25.60546875 -16.55859375 25.60546875 -18.4375 27.1875 C-19.05496094 27.71730469 -19.67242187 28.24710937 -20.30859375 28.79296875 C-22 30 -22 30 -24 30 C-24.35771484 30.87011719 -24.35771484 30.87011719 -24.72265625 31.7578125 C-26.25872563 34.45415446 -28.04021588 35.91465929 -30.4375 37.875 C-34.12956926 41.04549122 -35.86118984 43.62938793 -38 48 C-39.97181393 49.91430269 -42.02513491 51.65723219 -44.16015625 53.38671875 C-46.22560289 55.05685241 -46.22560289 55.05685241 -48 58 C-50.625 58.6875 -50.625 58.6875 -53 59 C-51.625 57 -51.625 57 -50 55 C-49.34 55 -48.68 55 -48 55 C-47.75121094 54.4328125 -47.50242188 53.865625 -47.24609375 53.28125 C-45.80453698 50.64216174 -44.1009717 48.71172336 -42.0625 46.5 C-41.25683594 45.62085938 -40.45117188 44.74171875 -39.62109375 43.8359375 C-38.75613281 42.90007812 -37.89117187 41.96421875 -37 41 C-35.6647967 39.54091185 -34.32960299 38.08181471 -32.99511719 36.62207031 C-31.60952057 35.10808626 -30.22106636 33.59676692 -28.83203125 32.0859375 C-26.92743522 30.01334701 -25.02954887 27.93490265 -23.13671875 25.8515625 C-19.0956344 21.41081811 -15.05547898 17.00183889 -10.75 12.8125 C-6.73124322 8.86847217 -3.34709929 4.51858404 0 0 Z " fill="#F7C95F" transform="translate(215,320)"/>
<path d="M0 0 C3.41634566 3.41634566 4.05999939 8.24763968 5.375 12.8125 C5.68518066 13.88242188 5.99536133 14.95234375 6.31494141 16.0546875 C10.55128531 31.04448711 14.21298917 46.84912625 14.0625 62.5 C14.05347656 63.7271875 14.04445313 64.954375 14.03515625 66.21875 C14.02355469 67.1365625 14.01195312 68.054375 14 69 C12.68 68.67 11.36 68.34 10 68 C10.00523682 67.2479126 10.01047363 66.4958252 10.01586914 65.72094727 C10.03657227 62.33480658 10.04963877 58.94867916 10.0625 55.5625 C10.07087891 54.37849609 10.07925781 53.19449219 10.08789062 51.97460938 C10.09111328 50.84990234 10.09433594 49.72519531 10.09765625 48.56640625 C10.10289307 47.52427979 10.10812988 46.48215332 10.11352539 45.40844727 C10.27305556 43.04871253 10.27305556 43.04871253 9 42 C8.59809971 40.11370887 8.25342647 38.21507944 7.9375 36.3125 C7.76089844 35.27738281 7.58429688 34.24226563 7.40234375 33.17578125 C7.00985434 30.07778231 6.92986316 27.11875137 7 24 C6.34 24 5.68 24 5 24 C5 21.69 5 19.38 5 17 C4.34 17 3.68 17 3 17 C2.49453964 14.91798472 1.99583165 12.83432933 1.5 10.75 C1.2215625 9.58984375 0.943125 8.4296875 0.65625 7.234375 C0 4 0 4 0 0 Z " fill="#EEB169" transform="translate(486,166)"/>
<path d="M0 0 C-25.34067824 10.68582818 -51.31380703 19.22664265 -79 20 C-78.67 19.34 -78.34 18.68 -78 18 C-75.3046875 17.65625 -75.3046875 17.65625 -71.875 17.5 C-66.94530687 17.19895004 -62.72446584 16.48218536 -58 15 C-56.56471433 14.83378126 -55.12687879 14.68844564 -53.6875 14.5625 C-52.470625 14.376875 -51.25375 14.19125 -50 14 C-49.34 13.01 -48.68 12.02 -48 11 C-48 11.66 -48 12.32 -48 13 C-46.1858073 12.71905418 -44.37364999 12.42493567 -42.5625 12.125 C-41.55316406 11.96257812 -40.54382813 11.80015625 -39.50390625 11.6328125 C-38.26447266 11.31957031 -38.26447266 11.31957031 -37 11 C-36.67 10.34 -36.34 9.68 -36 9 C-33.03 9 -30.06 9 -27 9 C-27 8.34 -27 7.68 -27 7 C-23.04 6.34 -19.08 5.68 -15 5 C-14.67 4.01 -14.34 3.02 -14 2 C-12.6696875 1.814375 -12.6696875 1.814375 -11.3125 1.625 C-8.04109142 1.12691191 -8.04109142 1.12691191 -5.3125 -0.125 C-3 -1 -3 -1 0 0 Z " fill="#F1AD60" transform="translate(351,480)"/>
<path d="M0 0 C3.63 0.33 7.26 0.66 11 1 C11.33 1.99 11.66 2.98 12 4 C14.64 3.67 17.28 3.34 20 3 C20.33 3.99 20.66 4.98 21 6 C22.918125 5.9690625 22.918125 5.9690625 24.875 5.9375 C28.75 5.875 28.75 5.875 31 7 C32.37548156 7.08308638 33.75485796 7.10736016 35.1328125 7.09765625 C35.93847656 7.09443359 36.74414062 7.09121094 37.57421875 7.08789062 C38.83685547 7.07532227 38.83685547 7.07532227 40.125 7.0625 C41.39923828 7.05573242 41.39923828 7.05573242 42.69921875 7.04882812 C44.79950909 7.03702874 46.8997633 7.01909306 49 7 C49.66 8.32 50.32 9.64 51 11 C43.99251697 11.19525495 37.46445692 10.49626587 30.5625 9.3125 C29.00208984 9.05001465 29.00208984 9.05001465 27.41015625 8.78222656 C18.07949429 7.14421513 9.0466387 4.78709576 0 2 C0 1.34 0 0.68 0 0 Z " fill="#EB9A52" transform="translate(178,489)"/>
<path d="M0 0 C0.66 0 1.32 0 2 0 C0.67452764 3.56485852 -0.9078273 6.66794224 -2.94140625 9.87890625 C-3.52124268 10.79526855 -4.1010791 11.71163086 -4.69848633 12.65576172 C-5.31361084 13.61498535 -5.92873535 14.57420898 -6.5625 15.5625 C-7.18858154 16.54234863 -7.81466309 17.52219727 -8.4597168 18.53173828 C-12.99047037 25.56456719 -17.57161228 32.61524621 -23 39 C-23.33 39 -23.66 39 -24 39 C-24 36.36 -24 33.72 -24 31 C-22.02 31.99 -22.02 31.99 -20 33 C-20 31.68 -20 30.36 -20 29 C-19.34 29 -18.68 29 -18 29 C-17.67 27.35 -17.34 25.7 -17 24 C-16.34 24 -15.68 24 -15 24 C-15 23.34 -15 22.68 -15 22 C-14.34 22 -13.68 22 -13 22 C-13 21.34 -13 20.68 -13 20 C-12.34 20 -11.68 20 -11 20 C-10.8453125 19.2265625 -10.8453125 19.2265625 -10.6875 18.4375 C-9.75736134 15.13973565 -8.38604488 12.13366668 -7 9 C-6.01 9 -5.02 9 -4 9 C-3.67 6.69 -3.34 4.38 -3 2 C-2.01 2 -1.02 2 0 2 C0 1.34 0 0.68 0 0 Z " fill="#F2A65A" transform="translate(468,370)"/>
<path d="M0 0 C1.60875 0.2784375 1.60875 0.2784375 3.25 0.5625 C6.40391546 0.9304568 8.09818492 1.04465343 11 0 C10.48397608 2.06409569 9.97798299 4.06054677 9.25 6.0625 C9.1675 6.701875 9.085 7.34125 9 8 C9.48162598 8.44827148 9.96325195 8.89654297 10.45947266 9.35839844 C12.3984279 11.42456881 12.38558928 12.40955416 12.3984375 15.203125 C12.40230469 16.01910156 12.40617187 16.83507812 12.41015625 17.67578125 C12.39855469 18.52527344 12.38695312 19.37476563 12.375 20.25 C12.38660156 21.08402344 12.39820313 21.91804688 12.41015625 22.77734375 C12.38430183 28.26709922 11.49898784 32.10780159 9 37 C8.01 37 7.02 37 6 37 C6.433125 35.948125 6.433125 35.948125 6.875 34.875 C7.24625 33.92625 7.6175 32.9775 8 32 C8.37125 31.071875 8.7425 30.14375 9.125 29.1875 C11.30927745 21.23048928 9.73502974 15.17578442 6 8 C4.14432098 5.20290334 2.1553463 2.57204658 0 0 Z " fill="#FBC56B" transform="translate(371,354)"/>
<path d="M0 0 C0 0.99 0 1.98 0 3 C-5.83968365 6.50381019 -12.93980081 6.16917804 -19.55859375 6.31640625 C-20.34774673 6.33718735 -21.13689972 6.35796844 -21.94996643 6.37937927 C-24.44573109 6.44423305 -26.94159178 6.50345805 -29.4375 6.5625 C-31.13998348 6.60574642 -32.84245762 6.64936256 -34.54492188 6.69335938 C-38.69651873 6.79984763 -42.84821118 6.90129147 -47 7 C-47 7.66 -47 8.32 -47 9 C-47.99 9 -48.98 9 -50 9 C-50.0825 9.61875 -50.165 10.2375 -50.25 10.875 C-51 13 -51 13 -52.8125 14.125 C-53.534375 14.41375 -54.25625 14.7025 -55 15 C-56.33673704 15.65981536 -57.67059133 16.32554109 -59 17 C-58.13192399 15.93183555 -57.25505217 14.87081915 -56.375 13.8125 C-55.88773437 13.22082031 -55.40046875 12.62914062 -54.8984375 12.01953125 C-48.5371907 5.25252591 -48.5371907 5.25252591 -43.37231445 4.40405273 C-42.03600662 4.39009927 -40.69926755 4.40112968 -39.36328125 4.43359375 C-38.64319382 4.42795914 -37.92310638 4.42232452 -37.18119812 4.41651917 C-34.89096038 4.40015579 -32.60266779 4.41550008 -30.3125 4.4375 C-16.84925699 4.59210015 -16.84925699 4.59210015 -3.99291992 0.85961914 C-2 0 -2 0 0 0 Z " fill="#FFEDBE" transform="translate(355,216)"/>
<path d="M0 0 C2.31 0.33 4.62 0.66 7 1 C2.67404873 5.88471997 -2.39066514 8.86508221 -8 12.125 C-8.88945312 12.64964844 -9.77890625 13.17429687 -10.6953125 13.71484375 C-12.39469396 14.71671789 -14.09639383 15.7146737 -15.80078125 16.70800781 C-17.54929712 17.73522207 -19.27831159 18.79561581 -21 19.8671875 C-23 21 -23 21 -25 21 C-24.505 19.515 -24.505 19.515 -24 18 C-20.4375 16.8125 -20.4375 16.8125 -17 16 C-17 15.34 -17 14.68 -17 14 C-16.01 14 -15.02 14 -14 14 C-14 13.01 -14 12.02 -14 11 C-10.535 10.505 -10.535 10.505 -7 10 C-6.67 9.01 -6.34 8.02 -6 7 C-5.34 6.67 -4.68 6.34 -4 6 C-4 5.01 -4 4.02 -4 3 C-2.68 2.67 -1.36 2.34 0 2 C0 1.34 0 0.68 0 0 Z " fill="#F4A54E" transform="translate(394,449)"/>
<path d="M0 0 C0.66 0.99 1.32 1.98 2 3 C5.05429073 4.21284876 5.05429073 4.21284876 8 5 C7.33333333 8.33333333 6.66666667 11.66666667 6 15 C4.68 15.33 3.36 15.66 2 16 C2.33 15.34 2.66 14.68 3 14 C3.45269507 9.33954242 3.45269507 9.33954242 1.8125 5.125 C-0.62648225 3.61114895 -2.1014054 3.06740918 -5 3 C-8.13124461 4.6984961 -8.13124461 4.6984961 -11 7 C-12.175625 7.86625 -12.175625 7.86625 -13.375 8.75 C-14.179375 9.36875 -14.179375 9.36875 -15 10 C-13.75587233 6.55472339 -12.45185936 3.74608248 -10 1 C-6.457201 -0.180933 -3.71640139 -0.27028374 0 0 Z " fill="#F6AD57" transform="translate(390,111)"/>
<path d="M0 0 C0.66 1.32 1.32 2.64 2 4 C1.01 4.33 0.02 4.66 -1 5 C-1.33 5.99 -1.66 6.98 -2 8 C-2.66 8 -3.32 8 -4 8 C-4 8.99 -4 9.98 -4 11 C-4.66 11 -5.32 11 -6 11 C-6.04125 11.5775 -6.0825 12.155 -6.125 12.75 C-7.43325261 16.11407813 -10.01421964 17.11103691 -13 19 C-13.66 19.99 -14.32 20.98 -15 22 C-15.99 22.66 -16.98 23.32 -18 24 C-18 24.66 -18 25.32 -18 26 C-18.66 26 -19.32 26 -20 26 C-19.49613211 21.74372751 -18.33768463 19.86778186 -15.25390625 16.93359375 C-14.49916016 16.20076172 -13.74441406 15.46792969 -12.96679688 14.71289062 C-12.17337891 13.96201172 -11.37996094 13.21113281 -10.5625 12.4375 C-8.99683751 10.94085447 -7.43545416 9.43971641 -5.87890625 7.93359375 C-5.1835376 7.27415771 -4.48816895 6.61472168 -3.77172852 5.93530273 C-2.0350539 4.03829024 -1.01443611 2.34892795 0 0 Z " fill="#F7B35F" transform="translate(421,150)"/>
<path d="M0 0 C1 3 1 3 0.25 4.8125 C-0.1625 5.534375 -0.575 6.25625 -1 7 C-1.45375 7.99 -1.9075 8.98 -2.375 10 C-4.60792482 14.12232274 -6.51349401 16.504498 -11 18 C-11.33 18.66 -11.66 19.32 -12 20 C-12.66 20 -13.32 20 -14 20 C-12.42611782 14.869941 -9.23031385 11.25513685 -5.875 7.1875 C-5.31167969 6.49462891 -4.74835937 5.80175781 -4.16796875 5.08789062 C-2.784086 3.38735674 -1.39470449 1.69166006 0 0 Z " fill="#F6984F" transform="translate(59,86)"/>
<path d="M0 0 C0.33 0.99 0.66 1.98 1 3 C0.34 3 -0.32 3 -1 3 C-1.268125 3.61875 -1.53625 4.2375 -1.8125 4.875 C-3 7 -3 7 -6 9 C-6.33 9.66 -6.66 10.32 -7 11 C-8.65 11 -10.3 11 -12 11 C-12.061875 11.598125 -12.12375 12.19625 -12.1875 12.8125 C-13 15 -13 15 -15.375 16.8125 C-18 18 -18 18 -21 17 C-14.3548885 10.7729107 -7.46839349 5.21083728 0 0 Z " fill="#F4974C" transform="translate(108,42)"/>
<path d="M0 0 C11.58040773 2.68211078 22.772617 6.10160313 34 10 C30.3863669 11.03198323 27.9530393 10.81192462 24.25 10.0625 C23.26515625 9.86785156 22.2803125 9.67320313 21.265625 9.47265625 C20.51796875 9.31667969 19.7703125 9.16070312 19 9 C19 8.34 19 7.68 19 7 C17.98679687 6.92652344 17.98679687 6.92652344 16.953125 6.8515625 C16.06109375 6.77679687 15.1690625 6.70203125 14.25 6.625 C13.36828125 6.55539063 12.4865625 6.48578125 11.578125 6.4140625 C8.98023182 5.99682511 7.27874893 5.27455449 5 4 C3.33859237 3.32033324 1.67299959 2.65061095 0 2 C0 1.34 0 0.68 0 0 Z " fill="#F1AC60" transform="translate(306,5)"/>
<path d="M0 0 C0.33 1.32 0.66 2.64 1 4 C0.01 4 -0.98 4 -2 4 C-2.0825 4.5775 -2.165 5.155 -2.25 5.75 C-3.21797787 8.6539336 -4.68694284 10.03740604 -7 12 C-7.66 12 -8.32 12 -9 12 C-9 12.66 -9 13.32 -9 14 C-9.66 14 -10.32 14 -11 14 C-11.226875 14.639375 -11.45375 15.27875 -11.6875 15.9375 C-13 18 -13 18 -15.625 18.75 C-16.40875 18.8325 -17.1925 18.915 -18 19 C-12.44964797 12.21623641 -6.23557973 6.14477032 0 0 Z " fill="#F6D17D" transform="translate(353,113)"/>
<path d="M0 0 C0.66 0.33 1.32 0.66 2 1 C3.42323461 8.25849651 3.09313103 15.63230047 3 23 C1.68 22.67 0.36 22.34 -1 22 C-0.67 14.74 -0.34 7.48 0 0 Z " fill="#F6A950" transform="translate(497,212)"/>
<path d="M0 0 C0.33 0.66 0.66 1.32 1 2 C3.02463255 2.65213292 3.02463255 2.65213292 5 3 C1.92924421 5.04717052 0.30433736 5.47357265 -3.26171875 6.0703125 C-4.81729492 6.33134766 -4.81729492 6.33134766 -6.40429688 6.59765625 C-7.48775391 6.77167969 -8.57121094 6.94570313 -9.6875 7.125 C-11.28368164 7.39763672 -11.28368164 7.39763672 -12.91210938 7.67578125 C-18.68841972 8.62482297 -24.14769221 9.21229653 -30 9 C-29.67 8.34 -29.34 7.68 -29 7 C-26.3046875 6.65625 -26.3046875 6.65625 -22.875 6.5 C-17.94530687 6.19895004 -13.72446584 5.48218536 -9 4 C-6.33630794 3.5734301 -3.68442011 3.28257054 -1 3 C-0.67 2.01 -0.34 1.02 0 0 Z " fill="#EAA664" transform="translate(302,491)"/>
<path d="M0 0 C0.66 0 1.32 0 2 0 C1.94779297 0.92619141 1.94779297 0.92619141 1.89453125 1.87109375 C1.56189793 12.27776488 4.32744999 19.07499724 11 27 C9.35 27.33 7.7 27.66 6 28 C6 26.35 6 24.7 6 23 C5.34 23 4.68 23 4 23 C4 22.34 4 21.68 4 21 C3.34 21 2.68 21 2 21 C2 19.35 2 17.7 2 16 C1.34 16 0.68 16 0 16 C0 10.72 0 5.44 0 0 Z " fill="#F2AA6E" transform="translate(107,368)"/>
<path d="M0 0 C-3 2 -3 2 -6 2 C-6 2.66 -6 3.32 -6 4 C-5.01 4 -4.02 4 -3 4 C-3 4.66 -3 5.32 -3 6 C-3.721875 5.95875 -4.44375 5.9175 -5.1875 5.875 C-8.48439112 6.02152849 -10.13375893 6.32220035 -13 8 C-14.61269063 10.00959635 -16.06422682 12.06514525 -17.47265625 14.22265625 C-19.24917582 16.28996163 -20.34498749 16.62886922 -23 17 C-22.59007812 16.45730469 -22.18015625 15.91460937 -21.7578125 15.35546875 C-21.21898437 14.64003906 -20.68015625 13.92460937 -20.125 13.1875 C-19.59132812 12.47980469 -19.05765625 11.77210938 -18.5078125 11.04296875 C-17.29185219 9.39543703 -16.13583859 7.70375789 -15 6 C-13.00854609 4.98308736 -11.00812926 3.98357352 -9 3 C-8.46375 2.46375 -7.9275 1.9275 -7.375 1.375 C-5.0481971 -0.9518029 -2.93313973 -1.46656987 0 0 Z " fill="#F6CC6D" transform="translate(257,286)"/>
<path d="M0 0 C-1.65863505 4.32504836 -4.871041 7.09418825 -8.125 10.25 C-8.68832031 10.80429687 -9.25164062 11.35859375 -9.83203125 11.9296875 C-11.21686028 13.29104485 -12.60783204 14.64614859 -14 16 C-14.33 15.34 -14.66 14.68 -15 14 C-15.66 14 -16.32 14 -17 14 C-16.34 12.68 -15.68 11.36 -15 10 C-14.67 10.66 -14.34 11.32 -14 12 C-13.67 10.68 -13.34 9.36 -13 8 C-11.68 8.33 -10.36 8.66 -9 9 C-8.690625 8.38125 -8.38125 7.7625 -8.0625 7.125 C-7.375 5.75 -6.6875 4.375 -6 3 C-5.34 3 -4.68 3 -4 3 C-4 2.34 -4 1.68 -4 1 C-2 0 -2 0 0 0 Z " fill="#F7A546" transform="translate(441,412)"/>
<path d="M0 0 C0.66 0.33 1.32 0.66 2 1 C-2.64172645 5.90282356 -7.49280079 10.09489511 -13 14 C-13.33 12.02 -13.66 10.04 -14 8 C-13.01 7.67 -12.02 7.34 -11 7 C-10.34 7.33 -9.68 7.66 -9 8 C-9 7.34 -9 6.68 -9 6 C-7.68 5.67 -6.36 5.34 -5 5 C-5 4.34 -5 3.68 -5 3 C-4.34 3 -3.68 3 -3 3 C-3 2.34 -3 1.68 -3 1 C-2.01 0.67 -1.02 0.34 0 0 Z " fill="#FBD073" transform="translate(160,315)"/>
<path d="M0 0 C0.66 1.32 1.32 2.64 2 4 C0.75 5.5 0.75 5.5 -1 7 C-2.32 7 -3.64 7 -5 7 C-5.20625 7.721875 -5.4125 8.44375 -5.625 9.1875 C-7.45248163 12.9255306 -9.70438806 14.49246917 -13 17 C-13.66 16.67 -14.32 16.34 -15 16 C-13.88200014 14.66079162 -12.75538103 13.32877444 -11.625 12 C-10.68527344 10.88625 -10.68527344 10.88625 -9.7265625 9.75 C-8.87191406 8.88375 -8.87191406 8.88375 -8 8 C-7.34 8 -6.68 8 -6 8 C-5.7525 7.4225 -5.505 6.845 -5.25 6.25 C-3.83316683 3.6997003 -2.12372463 1.98214299 0 0 Z " fill="#F7CD65" transform="translate(233,303)"/>
<path d="M0 0 C1.30324219 -0.00386719 1.30324219 -0.00386719 2.6328125 -0.0078125 C4.875 0.125 4.875 0.125 6.875 1.125 C6.875 3.435 6.875 5.745 6.875 8.125 C6.318125 7.320625 5.76125 6.51625 5.1875 5.6875 C3.10960282 3.03799411 3.10960282 3.03799411 0.5 2.0625 C-3.27170862 2.15230259 -5.17236014 3.87842619 -8.125 6.125 C-9.115 6.785 -10.105 7.445 -11.125 8.125 C-11.125 6.805 -11.125 5.485 -11.125 4.125 C-10.465 4.125 -9.805 4.125 -9.125 4.125 C-9.125 3.135 -9.125 2.145 -9.125 1.125 C-6.02102241 0.21546238 -3.22989778 -0.00964149 0 0 Z " fill="#F2B063" transform="translate(415.125,138.875)"/>
<path d="M0 0 C0.33 0.66 0.66 1.32 1 2 C0.67 2.99 0.34 3.98 0 5 C-0.66 5 -1.32 5 -2 5 C-2.2475 5.556875 -2.495 6.11375 -2.75 6.6875 C-4 9 -4 9 -6.0625 11.5 C-7.86644927 13.82767647 -8.57691542 15.1441791 -9 18 C-9.66 17.34 -10.32 16.68 -11 16 C-10.91687801 12.04339327 -10.24916685 10.30240763 -7.71484375 7.2265625 C-6.79832031 6.36804688 -5.88179688 5.50953125 -4.9375 4.625 C-4.01839844 3.75101563 -3.09929687 2.87703125 -2.15234375 1.9765625 C-1.44207031 1.32429687 -0.73179687 0.67203125 0 0 Z " fill="#F7AF5A" transform="translate(391,127)"/>
<path d="M0 0 C0.33 0.99 0.66 1.98 1 3 C-6.2274605 3.24091535 -12.90294338 2.34495828 -20 1 C-20 0.67 -20 0.34 -20 0 C-17.60458732 -0.19585135 -15.20907226 -0.38192107 -12.8125 -0.5625 C-11.80219727 -0.64661133 -11.80219727 -0.64661133 -10.77148438 -0.73242188 C-6.982869 -1.00963763 -3.68172206 -0.96511161 0 0 Z " fill="#EDA45E" transform="translate(228,497)"/>
<path d="M0 0 C0.99 0.33 1.98 0.66 3 1 C-4.11389522 12.70615034 -4.11389522 12.70615034 -9 17 C-9 14.36 -9 11.72 -9 9 C-7.02 9.99 -7.02 9.99 -5 11 C-5 9.68 -5 8.36 -5 7 C-4.34 7 -3.68 7 -3 7 C-2.67 5.35 -2.34 3.7 -2 2 C-1.34 2 -0.68 2 0 2 C0 1.34 0 0.68 0 0 Z " fill="#F5AE5D" transform="translate(453,392)"/>
<path d="M0 0 C-1.43963639 3.35915158 -3.12416589 5.71624938 -6 8 C-7.9375 8.125 -7.9375 8.125 -10 7 C-11.83419216 5.09222993 -13.38467008 3.10890296 -15 1 C-12.97954558 1.60183749 -10.97888961 2.27306096 -9 3 C-8.67 3.66 -8.34 4.32 -8 5 C-7.814375 4.0409375 -7.814375 4.0409375 -7.625 3.0625 C-7.41875 2.381875 -7.2125 1.70125 -7 1 C-4.53721199 -0.231394 -2.7204945 -0.07159196 0 0 Z " fill="#F8A542" transform="translate(375,120)"/>
<path d="M0 0 C0.66 0.33 1.32 0.66 2 1 C2.08149592 4.02138567 2.14073421 7.04053905 2.1875 10.0625 C2.22520508 11.33383789 2.22520508 11.33383789 2.26367188 12.63085938 C2.32846972 18.2250736 1.57466587 22.01960959 -1 27 C-1.99 27 -2.98 27 -4 27 C-3.71125 26.29875 -3.4225 25.5975 -3.125 24.875 C-2.75375 23.92625 -2.3825 22.9775 -2 22 C-1.4740625 20.68515625 -1.4740625 20.68515625 -0.9375 19.34375 C0.19141564 15.31728422 0.2225763 11.77574551 0.125 7.625 C0.11597656 6.88894531 0.10695313 6.15289062 0.09765625 5.39453125 C0.07430144 3.5962112 0.03843836 1.79806089 0 0 Z " fill="#EFAA5B" transform="translate(381,364)"/>
<path d="M0 0 C0.33 0 0.66 0 1 0 C0.67 5.28 0.34 10.56 0 16 C-0.66 16 -1.32 16 -2 16 C-2 20.29 -2 24.58 -2 29 C-2.66 29.33 -3.32 29.66 -4 30 C-4.2773792 22.844002 -3.53099774 16.35759106 -2 9.375 C-1.80921875 8.46621094 -1.6184375 7.55742187 -1.421875 6.62109375 C-0.95680369 4.41200502 -0.48278453 2.2052724 0 0 Z " fill="#ECA364" transform="translate(5,192)"/>
<path d="M0 0 C1.1700097 3.91736581 0.69584017 6.97959015 0 11 C-0.66 11 -1.32 11 -2 11 C-2.66 15.29 -3.32 19.58 -4 24 C-4.66 24 -5.32 24 -6 24 C-6.33 24.66 -6.66 25.32 -7 26 C-6.43737174 19.78972353 -4.99833221 14.37169827 -2.9375 8.5 C-2.65583984 7.67757812 -2.37417969 6.85515625 -2.08398438 6.0078125 C-1.39622757 4.00282657 -0.69908924 2.00106277 0 0 Z " fill="#F0A566" transform="translate(13,166)"/>
<path d="M0 0 C1.32 0.33 2.64 0.66 4 1 C3.48244596 9.44430279 2.5439119 17.68086307 1 26 C0.67 26 0.34 26 0 26 C0 17.42 0 8.84 0 0 Z " fill="#EFB059" transform="translate(496,273)"/>
<path d="M0 0 C1.98 0 3.96 0 6 0 C6 0.66 6 1.32 6 2 C7.32 2 8.64 2 10 2 C10.144375 2.7425 10.28875 3.485 10.4375 4.25 C10.90187492 6.52027739 11.41863569 8.75759479 12 11 C8.57472113 9.52651292 6.35044942 7.59092154 3.75 4.9375 C3.04359375 4.22464844 2.3371875 3.51179687 1.609375 2.77734375 C0 1 0 1 0 0 Z " fill="#FCDB94" transform="translate(212,196)"/>
<path d="M0 0 C5.61 0.33 11.22 0.66 17 1 C16.01 1.99 15.02 2.98 14 4 C10.8125 3.6875 10.8125 3.6875 8 3 C8 3.99 8 4.98 8 6 C7.01 6 6.02 6 5 6 C4.34 4.35 3.68 2.7 3 1 C3 1.66 3 2.32 3 3 C2.01 2.67 1.02 2.34 0 2 C0 1.34 0 0.68 0 0 Z " fill="#F78B33" transform="translate(279,2)"/>
<path d="M0 0 C0.33 0.66 0.66 1.32 1 2 C-1.15350149 4.89894431 -3.32247094 7.3651175 -6.125 9.625 C-9.11853415 11.86558382 -9.11853415 11.86558382 -11 15 C-13.625 15.6875 -13.625 15.6875 -16 16 C-14.625 14 -14.625 14 -13 12 C-12.34 12 -11.68 12 -11 12 C-10.76539063 11.42765625 -10.53078125 10.8553125 -10.2890625 10.265625 C-8.70593415 7.48315699 -6.8008475 5.82929786 -4.375 3.75 C-3.55773437 3.04359375 -2.74046875 2.3371875 -1.8984375 1.609375 C-1.27195313 1.07828125 -0.64546875 0.5471875 0 0 Z " fill="#F6CC72" transform="translate(178,363)"/>
<path d="M0 0 C0 3.17370278 -0.30933342 4.3794668 -2 7 C-4 8 -4 8 -6 9 C-6.433125 9.928125 -6.433125 9.928125 -6.875 10.875 C-8.51822246 13.97886464 -11.05425485 15.20693774 -14 17 C-14.66 16.67 -15.32 16.34 -16 16 C-10.72 10.72 -5.44 5.44 0 0 Z " fill="#F7E087" transform="translate(367,151)"/>
<path d="M0 0 C0.33 1.32 0.66 2.64 1 4 C0.01 4 -0.98 4 -2 4 C-2.04125 4.556875 -2.0825 5.11375 -2.125 5.6875 C-3.4508957 9.19165291 -6.09104168 10.74407314 -9 13 C-9.66 13.66 -10.32 14.32 -11 15 C-10.582687 10.07215495 -8.45014073 8.0222855 -4.9375 4.6875 C-4.01839844 3.80449219 -3.09929687 2.92148438 -2.15234375 2.01171875 C-1.44207031 1.34785156 -0.73179687 0.68398437 0 0 Z " fill="#F5AE5F" transform="translate(365,101)"/>
<path d="M0 0 C4.88049925 3.9419417 9.0580583 8.11950075 13 13 C12.01 13.495 12.01 13.495 11 14 C11 13.34 11 12.68 11 12 C10.21625 11.9175 9.4325 11.835 8.625 11.75 C6 11 6 11 4.875 9 C4.58625 8.34 4.2975 7.68 4 7 C3.01 6.67 2.02 6.34 1 6 C0.67 4.02 0.34 2.04 0 0 Z " fill="#F3AF5C" transform="translate(427,73)"/>
<path d="M0 0 C0 3.86905083 -1.15035813 4.7158362 -3.6875 7.5625 C-4.37199219 8.34753906 -5.05648437 9.13257813 -5.76171875 9.94140625 C-9.29315576 13.18934221 -12.55663725 14.28621569 -17.3125 14.125 C-18.529375 14.08375 -19.74625 14.0425 -21 14 C-21 13.67 -21 13.34 -21 13 C-20.39414063 12.88785156 -19.78828125 12.77570313 -19.1640625 12.66015625 C-11.25852116 10.79931344 -6.62305576 6.70257372 -1 1 C-0.67 0.67 -0.34 0.34 0 0 Z " fill="#F3B278" transform="translate(155,386)"/>
<path d="M0 0 C0 3.93889932 -1.5513518 6.07654467 -4 9 C-5.97618484 10.87280294 -8.00791813 12.64192781 -10.09765625 14.38671875 C-11.82556093 15.85206707 -13.42369759 17.37459159 -15 19 C-15.66 18.67 -16.32 18.34 -17 18 C-16.43152344 17.443125 -15.86304688 16.88625 -15.27734375 16.3125 C-10.77260727 11.86040651 -6.43469324 7.34047545 -2.3125 2.53125 C-1.56874537 1.66353626 -0.8081145 0.8081145 0 0 Z " fill="#FADE9A" transform="translate(188,350)"/>
<path d="M0 0 C0.69140625 1.7734375 0.69140625 1.7734375 1 4 C-2.14942758 8.76942068 -6.42195649 11.77555142 -12 13 C-8.19524578 8.43969176 -4.25030379 4.14910608 0 0 Z " fill="#F9CE74" transform="translate(398,175)"/>
<path d="M0 0 C0 0.33 0 0.66 0 1 C-2.93850666 2.02506046 -5.74430649 2.95454338 -8.8125 3.5 C-9.534375 3.665 -10.25625 3.83 -11 4 C-11.33 4.66 -11.66 5.32 -12 6 C-14.28515625 6.4140625 -14.28515625 6.4140625 -17.0625 6.625 C-17.98160156 6.69976563 -18.90070313 6.77453125 -19.84765625 6.8515625 C-20.91306641 6.92503906 -20.91306641 6.92503906 -22 7 C-19.03496487 4.03496487 -15.47036557 3.18396397 -11.5625 1.8125 C-10.78583984 1.52697266 -10.00917969 1.24144531 -9.20898438 0.94726562 C-8.46068359 0.68236328 -7.71238281 0.41746094 -6.94140625 0.14453125 C-6.25763916 -0.09934326 -5.57387207 -0.34321777 -4.86938477 -0.59448242 C-3 -1 -3 -1 0 0 Z " fill="#F0974F" transform="translate(180,10)"/>
<path d="M0 0 C1.65 0 3.3 0 5 0 C5.433125 0.969375 5.86625 1.93875 6.3125 2.9375 C7.7014861 6.27731765 7.7014861 6.27731765 11 7 C11 7.66 11 8.32 11 9 C11.66 9 12.32 9 13 9 C13.33 10.32 13.66 11.64 14 13 C10.15901523 10.88507055 7.2560057 8.49948176 4.1875 5.375 C3.39730469 4.57835937 2.60710937 3.78171875 1.79296875 2.9609375 C0 1 0 1 0 0 Z " fill="#F0954D" transform="translate(72,426)"/>
<path d="M0 0 C2.92090003 1.30936898 4.75619462 2.75619462 7 5 C7.99 5.33 8.98 5.66 10 6 C10 6.66 10 7.32 10 8 C11.32 7.67 12.64 7.34 14 7 C14 8.98 14 10.96 14 13 C10.12060491 11.41379873 7.66638913 8.90079013 4.75 5.9375 C3.85796875 5.03902344 2.9659375 4.14054687 2.046875 3.21484375 C0 1 0 1 0 0 Z " fill="#FCE3AB" transform="translate(335,319)"/>
<path d="M0 0 C2.83634888 2.83634888 3.53830366 6.2544712 4.6875 10 C4.92533203 10.73734375 5.16316406 11.4746875 5.40820312 12.234375 C7.1245606 17.7508788 7.1245606 17.7508788 6 20 C5.67 19.01 5.34 18.02 5 17 C4.34 17 3.68 17 3 17 C2.49453964 14.91798472 1.99583165 12.83432933 1.5 10.75 C1.2215625 9.58984375 0.943125 8.4296875 0.65625 7.234375 C0 4 0 4 0 0 Z " fill="#F2B871" transform="translate(486,166)"/>
<path d="M0 0 C0.680625 0.70125 1.36125 1.4025 2.0625 2.125 C5.20780513 5.27934337 8.5888386 8.13934304 12 11 C11.67 11.66 11.34 12.32 11 13 C6.125 10.375 6.125 10.375 5 7 C3.35 6.67 1.7 6.34 0 6 C0 4.02 0 2.04 0 0 Z " fill="#F7DC97" transform="translate(277,329)"/>
<path d="M0 0 C0.33 0.99 0.66 1.98 1 3 C0.54625 3.391875 0.0925 3.78375 -0.375 4.1875 C-2.16065975 5.94575256 -2.16065975 5.94575256 -2.875 8.5 C-4.80771698 12.79492661 -8.96881322 13.98440661 -13 16 C-12.154375 15.030625 -11.30875 14.06125 -10.4375 13.0625 C-6.80214054 8.82847752 -3.39403181 4.42830778 0 0 Z " fill="#EFD07E" transform="translate(215,320)"/>
<path d="M0 0 C-0.680625 0.350625 -1.36125 0.70125 -2.0625 1.0625 C-5.3543367 3.23371144 -7.8379824 5.72988152 -10.546875 8.57421875 C-12 10 -12 10 -13 10 C-13 8.35 -13 6.7 -13 5 C-11.68 4.67 -10.36 4.34 -9 4 C-9 3.34 -9 2.68 -9 2 C-8.01 2 -7.02 2 -6 2 C-6 1.34 -6 0.68 -6 0 C-3.50907189 -1.24546405 -2.58919267 -0.7767578 0 0 Z " fill="#F3B365" transform="translate(360,87)"/>
<path d="M0 0 C5.26964527 2.63482263 8.97903554 6.79943911 13 11 C12.01 11.33 11.02 11.66 10 12 C6.51968156 9.70808298 4.7370378 7.72222385 3 4 C2.01 3.34 1.02 2.68 0 2 C0 1.34 0 0.68 0 0 Z " fill="#F5CF79" transform="translate(181,249)"/>
<path d="M0 0 C0 0.33 0 0.66 0 1 C-1.98 1 -3.96 1 -6 1 C-6 1.66 -6 2.32 -6 3 C-6.99 3 -7.98 3 -9 3 C-9.0825 3.61875 -9.165 4.2375 -9.25 4.875 C-10 7 -10 7 -11.8125 8.125 C-12.534375 8.41375 -13.25625 8.7025 -14 9 C-15.33673704 9.65981536 -16.67059133 10.32554109 -18 11 C-16.53621403 9.26297398 -15.06347112 7.53614247 -13.5703125 5.82421875 C-12.3785665 4.4397775 -11.23877587 3.01040863 -10.125 1.5625 C-6.8187188 -0.86858912 -4.03024157 -0.26868277 0 0 Z " fill="#F7D585" transform="translate(314,222)"/>
<path d="M0 0 C0.33 0.66 0.66 1.32 1 2 C0.0625 4.125 0.0625 4.125 -1 6 C-1.99 6 -2.98 6 -4 6 C-4.061875 6.598125 -4.12375 7.19625 -4.1875 7.8125 C-5.33938899 10.91373958 -7.06759592 11.64108103 -10 13 C-10.66 12.67 -11.32 12.34 -12 12 C-8.04 8.04 -4.08 4.08 0 0 Z " fill="#F8D57D" transform="translate(380,138)"/>
<path d="M0 0 C1.98 0 3.96 0 6 0 C5.0919838 1.13199353 4.17316174 2.25532363 3.25 3.375 C2.73953125 4.00148438 2.2290625 4.62796875 1.703125 5.2734375 C-0.08199481 7.08312318 -1.67949644 8.00117455 -4 9 C-2.80100302 5.9168649 -1.52299523 2.93720508 0 0 Z " fill="#F3A956" transform="translate(420,428)"/>
<path d="M0 0 C0.66 0 1.32 0 2 0 C4.01167675 5.78357065 4.22084624 10.90218999 4 17 C2.48300584 14.19547298 1.54691437 11.6142698 0.875 8.5 C0.70742188 7.7471875 0.53984375 6.994375 0.3671875 6.21875 C0 4 0 4 0 0 Z " fill="#EC9B54" transform="translate(3,295)"/>
<path d="M0 0 C0.33 0.99 0.66 1.98 1 3 C-0.21484375 4.82421875 -0.21484375 4.82421875 -1.9375 6.6875 C-2.50339844 7.31011719 -3.06929688 7.93273437 -3.65234375 8.57421875 C-4.09707031 9.04472656 -4.54179687 9.51523438 -5 10 C-6.32 9.67 -7.64 9.34 -9 9 C-6.03 6.03 -3.06 3.06 0 0 Z " fill="#F7D47F" transform="translate(334,132)"/>
<path d="M0 0 C3.71080883 4.42442592 6.84577733 9.17403931 10 14 C9.67 14.66 9.34 15.32 9 16 C6.7522025 13.94766315 5.9977758 12.99332739 5 10 C4.34 9.67 3.68 9.34 3 9 C3 8.01 3 7.02 3 6 C1.68 5.67 0.36 5.34 -1 5 C-0.67 3.35 -0.34 1.7 0 0 Z " fill="#F1A857" transform="translate(455,106)"/>
<path d="M0 0 C0.33 0.66 0.66 1.32 1 2 C-0.39942774 5.10983943 -1.4436601 6.68616724 -4.4375 8.375 C-7.166782 9.04067854 -8.36973896 8.77064973 -11 8 C-10.37351562 7.59007812 -9.74703125 7.18015625 -9.1015625 6.7578125 C-8.28429687 6.21898437 -7.46703125 5.68015625 -6.625 5.125 C-5.40683594 4.32449219 -5.40683594 4.32449219 -4.1640625 3.5078125 C-1.92405904 2.04134945 -1.92405904 2.04134945 0 0 Z " fill="#F8D581" transform="translate(366,207)"/>
<path d="M0 0 C0 3.64161995 -0.98581977 5.01602929 -3 8 C-3.53625 8.474375 -4.0725 8.94875 -4.625 9.4375 C-6.64057463 11.72792572 -6.67063865 14.03574786 -7 17 C-7.33 17 -7.66 17 -8 17 C-8.84256009 10.25951931 -8.84256009 10.25951931 -6.4765625 6.72265625 C-4.7149418 4.73454146 -2.91428197 2.84083231 -1 1 C-0.67 0.67 -0.34 0.34 0 0 Z " fill="#F7DC98" transform="translate(346,172)"/>
<path d="M0 0 C3.80625387 3.22067635 7.54081536 6.40244797 11 10 C8.36 9.67 5.72 9.34 3 9 C2.01 6.03 1.02 3.06 0 0 Z " fill="#F4AC55" transform="translate(408,55)"/>
<path d="M0 0 C0.721875 0.103125 1.44375 0.20625 2.1875 0.3125 C-0.98202847 3.57258643 -4.21187989 6.53487877 -7.8125 9.3125 C-7.8125 5.3125 -7.8125 5.3125 -5.625 2.5625 C-2.8125 0.3125 -2.8125 0.3125 0 0 Z " fill="#F8CF77" transform="translate(176.8125,298.6875)"/>
<path d="M0 0 C0 0.99 0 1.98 0 3 C-3.11910856 4.79275866 -5.67682428 5.34290718 -9.25 5.625 C-10.14203125 5.69976562 -11.0340625 5.77453125 -11.953125 5.8515625 C-12.62859375 5.90054688 -13.3040625 5.94953125 -14 6 C-12.53706784 3.07413567 -10.59729902 2.94053412 -7.5625 1.875 C-6.57378906 1.52179688 -5.58507812 1.16859375 -4.56640625 0.8046875 C-2 0 -2 0 0 0 Z " fill="#F8D993" transform="translate(355,216)"/>
<path d="M0 0 C1 3 1 3 0.1875 5 C-2.74096916 9.93215859 -2.74096916 9.93215859 -5.625 10.6875 C-6.40875 10.790625 -7.1925 10.89375 -8 11 C-5.50127818 7.1626772 -2.9156164 3.54039134 0 0 Z " fill="#F4A766" transform="translate(59,86)"/>
<path d="M0 0 C0.66 0 1.32 0 2 0 C-0.89066059 9.59453303 -0.89066059 9.59453303 -4 13 C-4.45374191 7.32822615 -3.65083143 4.4024732 0 0 Z " fill="#F4AC5C" transform="translate(480,345)"/>
<path d="M0 0 C0 3.26795703 -0.57850516 5.0821948 -2 8 C-2.99 8.66 -3.98 9.32 -5 10 C-6.32 9.67 -7.64 9.34 -9 9 C-6.03 6.03 -3.06 3.06 0 0 Z " fill="#F9CE74" transform="translate(385,188)"/>
<path d="M0 0 C1.64528614 3.12752591 2.91702499 6.3053057 4.125 9.625 C4.47820312 10.58664063 4.83140625 11.54828125 5.1953125 12.5390625 C6 15 6 15 6 17 C3 16 3 16 2.05078125 14.1796875 C0.46995165 9.24482262 -0.33070393 5.18102823 0 0 Z " fill="#F3CE86" transform="translate(112,155)"/>
<path d="M0 0 C1.65 0.33 3.3 0.66 5 1 C1.66666667 3.66666667 -1.66666667 6.33333333 -5 9 C-3.7508258 5.54074837 -2.32472205 2.85306797 0 0 Z " fill="#F4AB54" transform="translate(380,112)"/>
<path d="M0 0 C0.33 0.66 0.66 1.32 1 2 C1.66 2 2.32 2 3 2 C3 2.99 3 3.98 3 5 C3.66 5.33 4.32 5.66 5 6 C4.34 6 3.68 6 3 6 C2.67 6.66 2.34 7.32 2 8 C-1 6 -1 6 -1.6875 3.375 C-1.790625 2.59125 -1.89375 1.8075 -2 1 C-1.34 0.67 -0.68 0.34 0 0 Z " fill="#FAA139" transform="translate(455,110)"/>
<path d="M0 0 C-1.38188453 3.21043882 -2.92421903 5.04936365 -5.625 7.25 C-6.57246094 8.03117187 -6.57246094 8.03117187 -7.5390625 8.828125 C-8.02117187 9.21484375 -8.50328125 9.6015625 -9 10 C-8.38722388 7.03824877 -7.74627478 5.61941217 -6 3 C-5.34 3 -4.68 3 -4 3 C-4 2.34 -4 1.68 -4 1 C-2 0 -2 0 0 0 Z " fill="#F5B66B" transform="translate(441,412)"/>
<path d="M0 0 C1.65 0 3.3 0 5 0 C1.09130466 3.15702316 -2.8614939 6 -8 6 C-8 5.34 -8 4.68 -8 4 C-4.77208445 1.8480563 -3.71599191 1.79913557 0 2 C0 1.34 0 0.68 0 0 Z " fill="#F5AC60" transform="translate(359,473)"/>
<path d="M0 0 C0.33 0.99 0.66 1.98 1 3 C0.34 3 -0.32 3 -1 3 C-1.20625 3.639375 -1.4125 4.27875 -1.625 4.9375 C-3 7 -3 7 -6.125 7.75 C-7.548125 7.87375 -7.548125 7.87375 -9 8 C-6.14723863 5.06799526 -3.34920216 2.35684596 0 0 Z " fill="#F4A263" transform="translate(108,42)"/>
<path d="M0 0 C0.99 0.33 1.98 0.66 3 1 C2.67 1.99 2.34 2.98 2 4 C3.32 3.34 4.64 2.68 6 2 C6 4 6 6 6 8 C5.01 8 4.02 8 3 8 C0.19744677 5.0936485 0 4.21174952 0 0 Z " fill="#F69C50" transform="translate(50,399)"/>
<path d="M0 0 C-1.65 1.98 -3.3 3.96 -5 6 C-8 2.25 -8 2.25 -8 0 C-4.71303767 -0.79953138 -3.28976808 -1.09658936 0 0 Z " fill="#F9CA7B" transform="translate(124,350)"/>
<path d="M0 0 C0 3.67718093 -0.82184858 5.07076189 -3 8 C-5.6875 9.3125 -5.6875 9.3125 -8 10 C-5.83735988 6.01618925 -3.28788824 3.11016455 0 0 Z " fill="#F8DD96" transform="translate(199,338)"/>
<path d="M0 0 C0.33 1.32 0.66 2.64 1 4 C0.34 4 -0.32 4 -1 4 C-1.2475 5.11375 -1.495 6.2275 -1.75 7.375 C-3 11 -3 11 -5.125 12.4375 C-5.74375 12.623125 -6.3625 12.80875 -7 13 C-5.35821735 8.22390502 -2.73453298 4.20617096 0 0 Z " fill="#EF954A" transform="translate(44,106)"/>
<path d="M0 0 C0 0.99 0 1.98 0 3 C-1.8253125 2.9690625 -1.8253125 2.9690625 -3.6875 2.9375 C-6.27324924 2.92377036 -8.32621677 3.07091669 -10.875 3.625 C-11.57625 3.74875 -12.2775 3.8725 -13 4 C-13.66 3.34 -14.32 2.68 -15 2 C-12.87528825 1.6648342 -10.75022095 1.33192171 -8.625 1 C-7.44164062 0.814375 -6.25828125 0.62875 -5.0390625 0.4375 C-2 0 -2 0 0 0 Z " fill="#ECA360" transform="translate(221,0)"/>
<path d="M0 0 C0.66 0.33 1.32 0.66 2 1 C0.88121617 2.17262904 -0.24523051 3.33795138 -1.375 4.5 C-2.00148437 5.1496875 -2.62796875 5.799375 -3.2734375 6.46875 C-5 8 -5 8 -7 8 C-7 7.01 -7 6.02 -7 5 C-6.34 5 -5.68 5 -5 5 C-5 4.34 -5 3.68 -5 3 C-4.34 3 -3.68 3 -3 3 C-3 2.34 -3 1.68 -3 1 C-2.01 0.67 -1.02 0.34 0 0 Z " fill="#FAE1A5" transform="translate(160,315)"/>
<path d="M0 0 C3.25 -0.3125 3.25 -0.3125 7 0 C9.4375 2.5 9.4375 2.5 11 5 C10.67 5.66 10.34 6.32 10 7 C9.649375 6.566875 9.29875 6.13375 8.9375 5.6875 C6.21514365 3.31641544 3.35241784 2.3283165 0 1 C0 0.67 0 0.34 0 0 Z " fill="#F7B876" transform="translate(383,111)"/>
<path d="M0 0 C2.125 0.375 2.125 0.375 4 1 C2.86695008 4.39914975 1.87481525 5.05254451 -1 7 C-1.66 6.67 -2.32 6.34 -3 6 C-2.42655063 3.13275314 -2.1385485 2.1385485 0 0 Z " fill="#FC892D" transform="translate(60,88)"/>
<path d="M0 0 C5.445 1.485 5.445 1.485 11 3 C11 3.66 11 4.32 11 5 C6.78121808 5.19622241 3.82989106 4.80230168 0 3 C0 2.01 0 1.02 0 0 Z " fill="#F3A567" transform="translate(120,396)"/>
<path d="M0 0 C3.98069267 2.87494471 6.43571997 5.82117329 9 10 C6.6875 9.875 6.6875 9.875 4 9 C2.20599478 6.0527057 1.08888805 3.26666415 0 0 Z " fill="#F8E1A8" transform="translate(326,378)"/>
<path d="M0 0 C0 3 0 3 -1.75 4.82421875 C-2.4925 5.43910156 -3.235 6.05398437 -4 6.6875 C-4.7425 7.31011719 -5.485 7.93273437 -6.25 8.57421875 C-6.8275 9.04472656 -7.405 9.51523438 -8 10 C-8.33 9.01 -8.66 8.02 -9 7 C-8.34 7 -7.68 7 -7 7 C-6.67 5.68 -6.34 4.36 -6 3 C-5.38125 2.87625 -4.7625 2.7525 -4.125 2.625 C-1.80879168 2.12802644 -1.80879168 2.12802644 0 0 Z " fill="#FAE19F" transform="translate(284,201)"/>
<path d="M0 0 C-0.33 0.66 -0.66 1.32 -1 2 C-4.52059568 3.17353189 -7.306493 3.20146402 -11 3 C-11.66 2.34 -12.32 1.68 -13 1 C-8.62426048 0.40667939 -4.42471556 -0.13827236 0 0 Z " fill="#F2CC7A" transform="translate(330,166)"/>
<path d="M0 0 C1 2 1 2 0.375 3.9375 C-1.38449522 6.57674282 -3.16773721 7.6184084 -6 9 C-6.99 9 -7.98 9 -9 9 C-6.03 6.03 -3.06 3.06 0 0 Z " fill="#F7D990" transform="translate(324,142)"/>
<path d="M0 0 C0.33 0.66 0.66 1.32 1 2 C1.99 2.33 2.98 2.66 4 3 C5.1875 5.5625 5.1875 5.5625 6 8 C5.01 7.67 4.02 7.34 3 7 C3 6.34 3 5.68 3 5 C1.35 4.67 -0.3 4.34 -2 4 C-1.34 2.68 -0.68 1.36 0 0 Z " fill="#FBB244" transform="translate(156,386)"/>
<path d="M0 0 C2.31 1.98 4.62 3.96 7 6 C4 7 4 7 2 7 C1.67 6.01 1.34 5.02 1 4 C0.01 3.67 -0.98 3.34 -2 3 C-1 1 -1 1 0 0 Z " fill="#FBD281" transform="translate(307,360)"/>
<path d="M0 0 C0.99 0 1.98 0 3 0 C3 5.61 3 11.22 3 17 C2.67 17 2.34 17 2 17 C1.34 11.39 0.68 5.78 0 0 Z " fill="#EAA465" transform="translate(0,277)"/>
<path d="M0 0 C0 0.99 0 1.98 0 3 C-0.639375 3.2475 -1.27875 3.495 -1.9375 3.75 C-4.18741541 4.81562433 -4.18741541 4.81562433 -4.75 7.125 C-4.8325 7.74375 -4.915 8.3625 -5 9 C-6.32 8.67 -7.64 8.34 -9 8 C-6.03 5.36 -3.06 2.72 0 0 Z " fill="#F7CB6B" transform="translate(301,229)"/>
<path d="M0 0 C0.66 1.32 1.32 2.64 2 4 C1.01 4.33 0.02 4.66 -1 5 C-1.33 5.99 -1.66 6.98 -2 8 C-4.5625 9.1875 -4.5625 9.1875 -7 10 C-6.57847656 9.44570312 -6.15695312 8.89140625 -5.72265625 8.3203125 C-5.17480469 7.59585938 -4.62695312 6.87140625 -4.0625 6.125 C-3.51722656 5.40570313 -2.97195313 4.68640625 -2.41015625 3.9453125 C-0.96035376 2.05642921 -0.96035376 2.05642921 0 0 Z " fill="#F5B87C" transform="translate(421,150)"/>
<path d="M0 0 C0.66 0.33 1.32 0.66 2 1 C1.09972412 2.03531726 0.17906965 3.05294165 -0.75 4.0625 C-1.51570313 4.91521484 -1.51570313 4.91521484 -2.296875 5.78515625 C-4 7 -4 7 -6.203125 6.68359375 C-6.79609375 6.45800781 -7.3890625 6.23242188 -8 6 C-7.01 5.67 -6.02 5.34 -5 5 C-5 4.34 -5 3.68 -5 3 C-2.625 1.3125 -2.625 1.3125 0 0 Z " fill="#F2AF5C" transform="translate(399,150)"/>
<path d="M0 0 C1.32 0.33 2.64 0.66 4 1 C2.8572081 2.16964602 1.71068285 3.33564556 0.5625 4.5 C-0.07558594 5.1496875 -0.71367187 5.799375 -1.37109375 6.46875 C-3 8 -3 8 -4 8 C-4 6.35 -4 4.7 -4 3 C-3.01 3.33 -2.02 3.66 -1 4 C-0.67 2.68 -0.34 1.36 0 0 Z " fill="#F4BA6D" transform="translate(343,97)"/>
<path d="M0 0 C0 0.99 0 1.98 0 3 C0.99 3 1.98 3 3 3 C3 3.66 3 4.32 3 5 C-0.3 4.01 -3.6 3.02 -7 2 C-3 0 -3 0 0 0 Z " fill="#F29853" transform="translate(173,485)"/>
<path d="M0 0 C0.33 0 0.66 0 1 0 C1.28571429 7.42857143 1.28571429 7.42857143 -1 11 C-1.99 11 -2.98 11 -4 11 C-3.71125 10.29875 -3.4225 9.5975 -3.125 8.875 C-1.97866412 5.94547497 -0.97374346 2.99078347 0 0 Z " fill="#F3CA90" transform="translate(381,380)"/>
<path d="M0 0 C0 1.65 0 3.3 0 5 C0.66 5.33 1.32 5.66 2 6 C0.35 6.33 -1.3 6.66 -3 7 C-3.33 5.35 -3.66 3.7 -4 2 C-1 0 -1 0 0 0 Z " fill="#FB892F" transform="translate(109,384)"/>
<path d="M0 0 C1.65 0 3.3 0 5 0 C4.34 2.64 3.68 5.28 3 8 C2.34 8 1.68 8 1 8 C0.67 5.36 0.34 2.72 0 0 Z " fill="#F39143" transform="translate(107,360)"/>
<path d="M0 0 C0.66 0 1.32 0 2 0 C1.55123384 1.64846769 1.09069512 3.29373455 0.625 4.9375 C0.36976563 5.85402344 0.11453125 6.77054687 -0.1484375 7.71484375 C-1 10 -1 10 -3 11 C-2.32829194 7.1936543 -1.27253436 3.64793184 0 0 Z " fill="#F3B566" transform="translate(488,324)"/>
<path d="M0 0 C1.98 0.99 1.98 0.99 4 2 C3.67 4.97 3.34 7.94 3 11 C0.43383368 7.15075052 0.44902324 4.5650696 0 0 Z " fill="#F1A058" transform="translate(7,312)"/>
<path d="M0 0 C2.125 0.375 2.125 0.375 4 1 C2.35830472 3.02054804 0.69088222 5.02043058 -1 7 C-1.33 7 -1.66 7 -2 7 C-2.125 4.625 -2.125 4.625 -2 2 C-1.34 1.34 -0.68 0.68 0 0 Z " fill="#FAE9AB" transform="translate(238,293)"/>
<path d="M0 0 C0.66 0 1.32 0 2 0 C1.6875 1.875 1.6875 1.875 1 4 C-2 6 -2 6 -5 6 C-5 6.66 -5 7.32 -5 8 C-5.66 7.67 -6.32 7.34 -7 7 C-5.625 5.5 -5.625 5.5 -4 4 C-3.34 4 -2.68 4 -2 4 C-2 3.34 -2 2.68 -2 2 C-1.34 2 -0.68 2 0 2 C0 1.34 0 0.68 0 0 Z " fill="#FDE59E" transform="translate(262,220)"/>
<path d="M0 0 C1.32 0.66 2.64 1.32 4 2 C1.03 4.475 1.03 4.475 -2 7 C-2.125 4.625 -2.125 4.625 -2 2 C-1.34 1.34 -0.68 0.68 0 0 Z " fill="#FACD6B" transform="translate(372,174)"/>
<path d="M0 0 C4.29 1.65 8.58 3.3 13 5 C13 5.33 13 5.66 13 6 C7.25 6.125 7.25 6.125 5 5 C5 4.34 5 3.68 5 3 C3.35 2.67 1.7 2.34 0 2 C0 1.34 0 0.68 0 0 Z " fill="#F3B167" transform="translate(341,16)"/>
<path d="M0 0 C4.75207471 -0.43200679 7.78210698 1.01510917 12 3 C12 3.66 12 4.32 12 5 C7.61110675 4.33501617 4.0188515 2.81242323 0 1 C0 0.67 0 0.34 0 0 Z " fill="#FDB444" transform="translate(176,403)"/>
<path d="M0 0 C1.14926266 0.95421808 2.29430541 1.91352045 3.4375 2.875 C4.07558594 3.40867187 4.71367187 3.94234375 5.37109375 4.4921875 C7 6 7 6 8 8 C5.0280615 6.87548273 2.66559313 5.77706209 0 4 C0 2.68 0 1.36 0 0 Z " fill="#F7D58D" transform="translate(299,352)"/>
<path d="M0 0 C0.33 0.66 0.66 1.32 1 2 C0.34 2 -0.32 2 -1 2 C-1.2165625 2.86625 -1.2165625 2.86625 -1.4375 3.75 C-1.7159375 4.86375 -1.7159375 4.86375 -2 6 C-2.12375 6.721875 -2.2475 7.44375 -2.375 8.1875 C-2.58125 8.785625 -2.7875 9.38375 -3 10 C-3.99 10.33 -4.98 10.66 -6 11 C-5.43518386 7.04628701 -4.28003407 4.28324906 -2 1 C-1.34 0.67 -0.68 0.34 0 0 Z " fill="#F9A739" transform="translate(385,352)"/>
<path d="M0 0 C0.86625 0.4640625 0.86625 0.4640625 1.75 0.9375 C3.84294184 1.92583364 5.74535275 2.5168613 8 3 C8 4.65 8 6.3 8 8 C6.85073734 7.04578192 5.70569459 6.08647955 4.5625 5.125 C3.92441406 4.59132813 3.28632813 4.05765625 2.62890625 3.5078125 C1 2 1 2 0 0 Z " fill="#F7D57B" transform="translate(278,261)"/>
<path d="M0 0 C2.0343459 1.41519715 2.90410393 2.54982123 3.421875 4.98046875 C3.66273952 6.98176954 3.83532741 8.9909944 4 11 C3.34 11 2.68 11 2 11 C2 9.02 2 7.04 2 5 C1.34 5 0.68 5 0 5 C0 3.35 0 1.7 0 0 Z " fill="#F0AD5D" transform="translate(491,185)"/>
<path d="M0 0 C1.10844919 3.32534757 0.84454356 5.62182575 0 9 C-1.32 9.33 -2.64 9.66 -4 10 C-2.8905928 6.51329166 -1.73662334 3.22515763 0 0 Z " fill="#F39D5B" transform="translate(31,126)"/>
<path d="M0 0 C2.31 0.33 4.62 0.66 7 1 C7.33 2.65 7.66 4.3 8 6 C4.63408134 4.55746343 2.48952921 2.66735273 0 0 Z " fill="#F4A160" transform="translate(95,447)"/>
<path d="M0 0 C1 2 1 2 0.3125 4.875 C-1.03712351 8.08838932 -2.39272995 9.74036595 -5 12 C-5 11.01 -5 10.02 -5 9 C-4.34 9 -3.68 9 -3 9 C-2.87625 8.443125 -2.7525 7.88625 -2.625 7.3125 C-1.94023145 4.77885636 -1.00866237 2.42078968 0 0 Z " fill="#F1A04C" transform="translate(460,381)"/>
<path d="M0 0 C0.93423645 3.01031744 1.04449911 3.86650268 0 7 C-1.65 5.02 -3.3 3.04 -5 1 C-3.35 0.67 -1.7 0.34 0 0 Z " fill="#FBD174" transform="translate(316,293)"/>
<path d="M0 0 C2.375 0.3125 2.375 0.3125 5 1 C5.66 1.99 6.32 2.98 7 4 C6.67 4.99 6.34 5.98 6 7 C4.02 4.69 2.04 2.38 0 0 Z " fill="#FBF8E7" transform="translate(255,239)"/>
<path d="M0 0 C0.66 0.33 1.32 0.66 2 1 C1.67 2.98 1.34 4.96 1 7 C-0.98 5.35 -2.96 3.7 -5 2 C-4.34 1.67 -3.68 1.34 -3 1 C-2.01 1.33 -1.02 1.66 0 2 C0 1.34 0 0.68 0 0 Z " fill="#FAD275" transform="translate(236,213)"/>
<path d="M0 0 C2.18975773 3.28463659 2.99806563 6.20696275 4 10 C3.01 10.33 2.02 10.66 1 11 C0.67 7.37 0.34 3.74 0 0 Z " fill="#F5AF5D" transform="translate(482,155)"/>
<path d="M0 0 C2.64 0 5.28 0 8 0 C8 1.65 8 3.3 8 5 C4.62496331 3.8141763 2.35277269 2.72426311 0 0 Z " fill="#F19141" transform="translate(114,460)"/>
<path d="M0 0 C1.4606285 2.64738916 2 3.89448334 2 7 C-0.4375 6.1875 -0.4375 6.1875 -3 5 C-3.33 4.01 -3.66 3.02 -4 2 C-2.68 1.34 -1.36 0.68 0 0 Z " fill="#FB8A32" transform="translate(111,452)"/>
<path d="M0 0 C2.31 0.66 4.62 1.32 7 2 C6.67 3.65 6.34 5.3 6 7 C1.125 2.25 1.125 2.25 0 0 Z " fill="#F9D47F" transform="translate(371,354)"/>
<path d="M0 0 C2.50298434 2.93828597 3.46930939 5.17902761 4 9 C3.34 9 2.68 9 2 9 C2 8.34 2 7.68 2 7 C1.34 7 0.68 7 0 7 C0 4.69 0 2.38 0 0 Z " fill="#F4AE5E" transform="translate(476,142)"/>
<path d="M0 0 C0.66 0 1.32 0 2 0 C3.625 2 3.625 2 5 4 C3.68 4.99 2.36 5.98 1 7 C1 5.68 1 4.36 1 3 C0.34 3 -0.32 3 -1 3 C-0.67 2.01 -0.34 1.02 0 0 Z " fill="#F9C661" transform="translate(363,125)"/>
<path d="M0 0 C2.64 0 5.28 0 8 0 C7.67 0.66 7.34 1.32 7 2 C4.67843403 2.40729228 2.3431213 2.74438677 0 3 C0 2.01 0 1.02 0 0 Z " fill="#FD8A2E" transform="translate(96,53)"/>
<path d="M0 0 C0 0.66 0 1.32 0 2 C-0.99 2 -1.98 2 -3 2 C-3 2.66 -3 3.32 -3 4 C-5.31 4 -7.62 4 -10 4 C-4 0 -4 0 0 0 Z " fill="#F19752" transform="translate(158,17)"/>
<path d="M0 0 C0 0.66 0 1.32 0 2 C-5.625 4 -5.625 4 -9 4 C-9.66 3.34 -10.32 2.68 -11 2 C-3.375 0 -3.375 0 0 0 Z " fill="#F28C39" transform="translate(208,3)"/>
<path d="M0 0 C3.26460973 1.80412643 4.88929795 2.83394693 7 6 C5.35 6.33 3.7 6.66 2 7 C2 5.35 2 3.7 2 2 C1.34 2 0.68 2 0 2 C0 1.34 0 0.68 0 0 Z " fill="#F39855" transform="translate(111,389)"/>
<path d="M0 0 C0.33 0.66 0.66 1.32 1 2 C1.99 1.67 2.98 1.34 4 1 C3.34 2.32 2.68 3.64 2 5 C0.68 4.67 -0.64 4.34 -2 4 C-2 3.01 -2 2.02 -2 1 C-1.34 0.67 -0.68 0.34 0 0 Z " fill="#FC8A30" transform="translate(43,384)"/>
<path d="M0 0 C2.15377564 2.62198774 3.40072174 4.64404172 4 8 C2.68 8 1.36 8 0 8 C0 5.36 0 2.72 0 0 Z " fill="#F4AD5B" transform="translate(472,134)"/>
<path d="M0 0 C0.66 0.33 1.32 0.66 2 1 C0.515 3.475 0.515 3.475 -1 6 C-2.32 5.67 -3.64 5.34 -5 5 C-3.35 3.35 -1.7 1.7 0 0 Z " fill="#F39A53" transform="translate(83,62)"/>
<path d="M0 0 C1.65 0 3.3 0 5 0 C3.37660195 1.70884005 1.70680947 3.37446717 0 5 C-0.66 5 -1.32 5 -2 5 C-2 4.34 -2 3.68 -2 3 C-1.34 3 -0.68 3 0 3 C0 2.01 0 1.02 0 0 Z " fill="#F3AF6C" transform="translate(396,450)"/>
<path d="M0 0 C2.02054804 1.64169528 4.02043058 3.30911778 6 5 C6 5.33 6 5.66 6 6 C4.35 6 2.7 6 1 6 C0.67 4.02 0.34 2.04 0 0 Z " fill="#F6D687" transform="translate(314,367)"/>
<path d="M0 0 C1.32 0.66 2.64 1.32 4 2 C2.68 3.32 1.36 4.64 0 6 C-0.66 5.67 -1.32 5.34 -2 5 C-1.34 3.35 -0.68 1.7 0 0 Z " fill="#F9CD78" transform="translate(163,309)"/>
<path d="M0 0 C2.97 0.495 2.97 0.495 6 1 C6 2.65 6 4.3 6 6 C3.97945196 4.35830472 1.97956942 2.69088222 0 1 C0 0.67 0 0.34 0 0 Z " fill="#FBD27A" transform="translate(182,165)"/>
<path d="M0 0 C0.99 0 1.98 0 3 0 C3.625 1.875 3.625 1.875 4 4 C3.34 4.66 2.68 5.32 2 6 C1.34 5.34 0.68 4.68 0 4 C0 2.68 0 1.36 0 0 Z " fill="#FDA52F" transform="translate(383,142)"/>
<path d="M0 0 C0.66 0.99 1.32 1.98 2 3 C-0.375 4.5625 -0.375 4.5625 -3 6 C-3.66 5.67 -4.32 5.34 -5 5 C-3.35 3.35 -1.7 1.7 0 0 Z " fill="#F5A45D" transform="translate(65,80)"/>
</svg>
