<svg xmlns="http://www.w3.org/2000/svg" width="512" height="512" viewBox="0 0 512 512">
<g>
<path d="M 136.00 346.44 C136.00,347.04 131.86,351.35 126.79,356.02 C121.73,360.68 117.95,363.91 118.39,363.19 C118.87,362.41 118.58,361.19 117.67,360.19 C114.42,356.58 105.71,342.39 101.04,333.08 C94.94,320.92 89.71,306.03 86.27,291.02 C83.84,280.41 83.62,277.68 83.57,256.50 C83.51,230.32 84.88,221.39 92.17,200.17 C96.30,188.15 111.19,158.01 113.00,158.00 C113.28,158.00 114.31,160.76 115.30,164.12 C116.29,167.49 119.35,175.25 122.09,181.37 L 127.09 192.50 L 124.58 205.50 C119.67,231.03 118.26,251.20 119.90,272.50 C121.70,295.83 127.54,324.52 133.45,339.06 C134.85,342.52 136.00,345.84 136.00,346.44 ZM 393.46 365.00 C391.66,366.92 389.97,369.40 389.71,370.50 C389.40,371.80 389.15,371.98 389.00,371.00 C388.53,368.00 389.24,366.40 393.41,361.00 C408.34,341.70 419.77,317.47 424.55,295.00 C431.17,263.93 430.50,238.07 422.30,208.00 C420.56,201.65 414.12,184.95 412.86,183.55 C410.28,180.69 412.17,177.44 422.50,166.95 C432.47,156.84 433.00,156.09 433.00,152.10 C433.00,148.93 432.37,147.28 430.42,145.33 C428.20,143.11 427.23,142.83 423.30,143.27 C419.22,143.73 417.93,144.61 410.61,151.89 C406.13,156.35 401.94,160.00 401.30,160.00 C400.66,160.00 397.62,156.55 394.55,152.34 L 388.95 144.68 L 396.98 136.46 C404.41,128.85 405.00,127.94 405.00,124.08 C405.00,118.68 401.62,115.00 396.68,115.00 C392.94,115.00 391.38,116.04 382.57,124.38 C379.31,127.47 376.16,129.99 375.57,129.98 C374.98,129.97 371.59,127.34 368.03,124.13 L 361.56 118.30 L 370.28 109.23 C375.08,104.24 379.00,99.44 379.00,98.55 C379.00,95.52 376.17,90.16 373.94,88.97 C372.68,88.29 369.97,88.01 367.70,88.31 C364.27,88.77 362.33,90.20 354.46,98.04 L 345.23 107.23 L 332.86 101.16 C318.54,94.13 307.07,90.12 290.39,86.31 C279.35,83.79 276.89,83.60 256.00,83.60 C235.11,83.60 232.65,83.79 221.61,86.31 C204.99,90.11 193.47,94.13 179.34,101.06 C167.06,107.09 166.73,107.37 161.41,116.18 C160.81,117.17 159.61,118.78 158.75,119.74 C157.88,120.71 156.42,123.38 155.51,125.67 C154.59,127.97 153.16,130.11 152.33,130.43 C151.36,130.80 148.14,128.62 143.41,124.38 C139.33,120.74 136.00,117.50 136.00,117.18 C136.00,116.87 137.48,118.05 139.30,119.80 C141.11,121.56 143.15,123.00 143.83,123.00 C145.08,123.00 157.87,113.85 168.00,105.70 C178.44,97.30 194.00,90.63 216.00,85.12 C230.59,81.46 259.15,79.99 276.03,82.02 C289.26,83.61 290.88,83.90 301.24,86.52 C313.12,89.51 325.73,94.37 337.48,100.46 L 346.31 105.04 L 354.40 96.58 C362.59,88.03 365.78,86.00 371.01,86.00 C375.34,86.00 381.00,92.27 381.00,97.05 C381.00,100.34 379.47,102.45 371.27,110.43 C367.05,114.55 363.79,118.06 364.04,118.22 C364.29,118.39 366.83,120.43 369.68,122.76 C375.39,127.43 377.55,127.99 378.48,125.05 C378.82,123.98 379.87,122.86 380.80,122.55 C383.14,121.80 390.00,115.37 390.00,113.93 C390.00,113.12 391.84,112.89 396.04,113.20 C403.69,113.75 405.82,115.69 406.67,122.84 L 407.29 128.09 L 399.64 135.19 C391.84,142.44 390.64,144.88 393.77,147.19 C394.74,147.91 396.28,149.67 397.20,151.11 C399.20,154.25 401.86,157.00 402.90,157.00 C403.32,157.00 407.57,153.18 412.36,148.50 C422.98,138.11 424.62,137.77 431.42,144.58 C437.07,150.23 437.28,152.84 432.50,158.13 C430.58,160.26 429.00,162.71 429.00,163.56 C429.00,164.42 428.59,164.87 428.10,164.56 C427.13,163.96 420.00,170.60 420.00,172.10 C420.00,172.60 419.62,173.00 419.15,173.00 C417.84,173.00 414.00,176.60 414.00,177.83 C414.00,178.44 414.64,180.41 415.43,182.22 C431.85,219.88 435.50,260.55 425.93,299.29 C420.23,322.37 405.55,352.08 393.46,365.00 ZM 276.68 429.97 C266.04,431.37 243.75,431.09 231.00,429.40 C205.99,426.07 181.11,417.00 168.75,406.71 C165.51,404.01 161.75,401.24 160.41,400.54 C158.34,399.46 158.19,399.09 159.42,398.07 C159.83,397.72 160.12,397.46 160.45,397.40 C161.28,397.25 162.37,398.44 166.51,403.01 L 166.94 403.49 C170.18,407.05 189.09,416.13 202.09,420.36 C222.04,426.86 232.98,428.50 256.00,428.47 C273.51,428.45 278.17,428.11 288.00,426.10 C304.40,422.75 318.54,417.90 333.62,410.45 L 346.74 403.97 L 353.12 407.16 C360.97,411.08 367.91,411.86 374.75,409.58 C387.62,405.31 395.18,391.30 391.69,378.21 C390.72,374.59 390.62,373.04 391.39,373.29 C393.00,373.83 394.07,383.46 393.36,390.89 C392.76,397.09 392.55,397.47 386.49,403.62 C383.06,407.10 378.96,410.45 377.38,411.05 C371.61,413.24 364.28,412.84 355.38,409.85 C350.72,408.28 346.53,407.00 346.07,407.00 C345.62,407.00 341.59,409.02 337.13,411.49 C326.73,417.24 313.57,422.37 301.24,425.48 C291.32,427.99 290.39,428.16 276.68,429.97 ZM 403.00 465.69 C391.40,473.54 377.00,481.89 377.02,480.76 C377.04,478.46 378.54,477.07 382.54,475.65 C387.34,473.95 394.00,470.10 394.00,469.02 C394.00,468.59 395.46,467.66 397.25,466.94 C400.25,465.74 404.22,462.78 411.29,456.49 C412.83,455.12 414.63,454.00 415.30,454.00 C416.48,454.00 423.00,448.12 426.00,444.34 C426.83,443.31 429.41,441.22 431.75,439.72 C434.08,438.21 438.02,434.19 440.50,430.79 C442.97,427.38 445.00,425.01 445.00,425.51 C445.00,426.94 453.94,416.73 454.63,414.50 C454.97,413.40 456.30,411.38 457.59,410.00 C462.45,404.81 467.00,398.76 467.00,397.48 C467.00,396.74 467.60,395.54 468.34,394.80 C470.62,392.52 474.89,385.30 475.57,382.56 C476.18,380.15 479.39,377.00 481.23,377.00 C483.28,377.00 463.98,405.96 452.58,419.98 C440.74,434.55 417.87,455.63 403.00,465.69 ZM 479.13 130.25 C481.02,133.43 481.51,135.00 480.63,135.00 C478.92,135.00 476.00,131.76 476.00,129.87 C476.00,128.29 470.82,119.68 468.44,117.29 C467.65,116.50 467.00,115.26 467.00,114.52 C467.00,113.14 461.96,106.38 457.67,102.00 C456.33,100.62 454.93,98.53 454.57,97.34 C454.22,96.16 450.90,92.05 447.21,88.22 C443.52,84.38 438.69,79.28 436.48,76.87 C430.51,70.39 419.05,60.00 415.56,57.90 C413.88,56.90 411.38,55.13 410.00,53.99 C402.76,47.95 398.68,45.00 397.59,45.00 C396.91,45.00 394.59,43.41 392.43,41.47 C390.27,39.53 386.62,37.46 384.31,36.87 C380.28,35.83 376.07,32.59 377.25,31.42 C377.99,30.68 382.62,33.09 392.50,39.35 C419.73,56.60 443.61,78.96 462.64,105.00 C469.16,113.93 472.37,118.85 479.13,130.25 ZM 0.01 256.00 L 0.00 512.00 L 0.00 512.00 L 0.00 0.00 L 512.00 0.00 L 512.00 255.07 C511.90,252.45 511.39,249.99 510.47,248.97 C509.63,248.04 508.99,245.98 509.04,244.39 C509.35,235.88 508.75,223.47 507.93,221.32 C507.42,219.97 507.05,216.54 507.10,213.68 L 507.20 208.50 L 508.16 212.50 C508.69,214.70 509.71,221.00 510.43,226.50 C511.57,235.16 511.76,220.63 511.87,118.25 L 512.00 0.00 L 256.00 0.01 L 0.01 0.01 ZM 512.00 256.93 L 512.00 512.00 L 511.87 393.75 C511.76,291.37 511.57,276.84 510.43,285.50 C509.71,291.00 508.69,297.30 508.16,299.50 L 507.20 303.50 L 507.10 298.32 C507.05,295.46 507.43,291.99 507.96,290.59 C508.79,288.43 509.25,278.24 509.01,267.61 C508.97,266.02 509.63,263.96 510.47,263.03 C511.39,262.01 511.90,259.55 512.00,256.93 ZM 495.27 346.98 C492.89,353.29 490.51,358.89 489.97,359.43 C487.94,361.46 489.08,355.84 491.94,349.75 C495.28,342.62 497.93,335.65 498.67,332.00 C498.95,330.62 499.88,327.94 500.74,326.04 C501.59,324.14 502.49,320.54 502.72,318.04 C503.21,312.95 504.84,308.00 506.03,308.00 C507.76,308.00 501.70,329.94 495.27,346.98 ZM 505.39 197.75 C506.18,201.19 506.52,204.00 506.15,204.00 C504.74,204.00 503.00,199.88 503.00,196.53 C503.00,193.04 500.07,182.39 497.41,176.22 C496.64,174.41 496.00,172.38 495.99,171.72 C495.99,171.05 495.28,169.15 494.41,167.50 C490.56,160.19 487.59,150.19 489.97,152.57 C492.39,154.99 502.14,183.55 505.39,197.75 ZM 350.19 17.97 C355.15,20.05 358.83,21.96 358.36,22.21 C357.27,22.80 347.77,19.87 345.90,18.37 C344.51,17.25 343.06,16.75 337.75,15.57 C336.24,15.24 335.00,14.48 335.00,13.90 C335.00,12.34 339.82,13.63 350.19,17.97 ZM 355.77 491.78 C345.02,496.45 335.00,499.70 335.00,498.52 C335.00,497.81 337.13,496.70 339.74,496.04 C342.34,495.39 345.10,494.33 345.87,493.70 C347.69,492.18 357.75,489.08 358.47,489.81 C358.78,490.11 357.56,491.00 355.77,491.78 ZM 484.87 370.50 C483.73,372.42 482.62,374.00 482.40,374.00 C481.46,374.00 482.12,371.28 483.56,369.22 C486.07,365.64 487.13,366.67 484.87,370.50 ZM 484.77 141.34 C485.96,143.35 486.51,145.00 485.99,145.00 C484.64,145.00 481.74,140.29 482.21,138.87 C482.43,138.21 483.58,139.32 484.77,141.34 Z" fill="rgb(252,176,64)"/>
<path d="M 0.01 256.00 L 0.01 6.98 L 0.12 119.25 C0.18,184.84 0.59,236.25 1.02,233.50 C1.46,230.75 2.34,224.23 2.98,219.00 C4.61,205.76 10.18,183.60 15.56,168.90 C23.12,148.24 35.67,124.20 47.00,108.70 C55.25,97.41 70.33,79.88 78.59,71.98 C107.93,43.91 143.43,23.02 182.00,11.15 C196.64,6.65 205.74,4.83 232.00,1.18 C236.13,0.61 194.97,0.23 119.25,0.14 L 5.96 0.01 L 256.00 0.01 L 507.61 0.00 L 392.25 0.13 C321.76,0.20 275.38,0.60 279.50,1.10 C298.04,3.33 310.05,5.47 313.24,7.11 C314.19,7.60 315.77,8.01 316.74,8.02 C317.71,8.04 321.20,8.96 324.50,10.08 C327.80,11.19 332.75,12.53 335.50,13.05 C335.84,13.11 336.21,13.20 336.62,13.30 C335.53,13.18 335.00,13.38 335.00,13.90 C335.00,14.48 336.24,15.24 337.75,15.57 C343.06,16.75 344.51,17.25 345.90,18.37 C347.77,19.87 357.27,22.80 358.36,22.21 C358.83,21.96 355.15,20.05 350.19,17.97 C350.10,17.94 350.01,17.90 349.92,17.86 C354.67,19.75 358.90,21.69 360.06,22.66 C360.93,23.38 363.18,24.50 365.06,25.14 C366.95,25.78 369.62,27.07 371.00,28.01 C372.38,28.95 375.16,30.26 377.18,30.92 C377.54,31.03 378.00,31.22 378.54,31.46 C377.85,31.25 377.43,31.24 377.25,31.42 C376.07,32.59 380.28,35.83 384.31,36.87 C386.62,37.46 390.27,39.53 392.43,41.47 C394.59,43.41 396.91,45.00 397.59,45.00 C398.68,45.00 402.76,47.95 410.00,53.99 C411.38,55.13 413.88,56.90 415.56,57.90 C419.05,60.00 430.51,70.39 436.48,76.87 C438.69,79.28 443.52,84.38 447.21,88.22 C450.90,92.05 454.22,96.16 454.57,97.34 C454.93,98.53 456.33,100.62 457.67,102.00 C461.96,106.38 467.00,113.14 467.00,114.52 C467.00,115.26 467.65,116.50 468.44,117.29 C470.82,119.68 476.00,128.29 476.00,129.87 C476.00,131.76 478.92,135.00 480.63,135.00 C481.11,135.00 481.18,134.54 480.85,133.60 C481.54,134.90 482.23,136.20 482.89,137.50 C483.60,138.88 484.27,140.24 484.85,141.47 C484.82,141.43 484.80,141.38 484.77,141.34 C483.58,139.32 482.43,138.21 482.21,138.87 C481.74,140.29 484.64,145.00 485.99,145.00 C486.19,145.00 486.23,144.75 486.13,144.32 C486.67,145.59 487.00,146.49 487.00,146.79 C487.00,147.50 487.89,149.30 488.99,150.79 C489.28,151.19 489.65,151.84 490.08,152.70 C490.04,152.65 490.01,152.61 489.97,152.57 C487.59,150.19 490.56,160.19 494.41,167.50 C495.28,169.15 495.99,171.05 495.99,171.72 C496.00,172.38 496.64,174.41 497.41,176.22 C500.07,182.39 503.00,193.04 503.00,196.53 C503.00,199.88 504.74,204.00 506.15,204.00 C506.30,204.00 506.34,203.52 506.26,202.72 C506.94,206.01 507.59,209.35 508.18,212.56 L 508.16 212.50 L 507.20 208.50 L 507.10 213.68 C507.05,216.54 507.42,219.97 507.93,221.32 C508.75,223.47 509.35,235.88 509.04,244.39 C508.99,245.98 509.63,248.04 510.47,248.97 C511.39,249.99 511.90,252.45 512.00,255.07 L 512.00 256.93 C511.90,259.55 511.39,262.01 510.47,263.03 C509.63,263.96 508.97,266.02 509.01,267.61 C509.25,278.24 508.79,288.43 507.96,290.59 C507.43,291.99 507.05,295.46 507.10,298.32 L 507.20 303.50 L 508.16 299.50 C508.69,297.30 509.71,291.00 510.43,285.50 C510.48,285.16 510.52,284.85 510.56,284.59 C510.54,284.72 510.52,284.85 510.51,285.00 C509.49,292.82 507.99,301.49 506.29,309.57 C506.39,308.56 506.31,308.00 506.03,308.00 C504.84,308.00 503.21,312.95 502.72,318.04 C502.49,320.54 501.59,324.14 500.74,326.04 C499.88,327.94 498.95,330.62 498.67,332.00 C497.93,335.65 495.28,342.62 491.94,349.75 C489.08,355.84 487.94,361.46 489.97,359.43 C490.04,359.36 490.13,359.23 490.24,359.02 C489.75,360.00 489.33,360.74 488.99,361.21 C487.89,362.70 487.00,364.50 487.00,365.21 C487.00,365.63 486.63,366.64 486.00,368.08 C486.46,366.45 485.40,366.59 483.56,369.22 C482.12,371.28 481.46,374.00 482.40,374.00 C482.62,374.00 483.73,372.42 484.87,370.50 L 484.89 370.47 C483.94,372.42 482.73,374.77 481.38,377.27 C481.39,377.09 481.34,377.00 481.23,377.00 C479.39,377.00 476.18,380.15 475.57,382.56 C474.89,385.30 470.62,392.52 468.34,394.80 C467.60,395.54 467.00,396.74 467.00,397.48 C467.00,398.76 462.45,404.81 457.59,410.00 C456.30,411.38 454.97,413.40 454.63,414.50 C453.94,416.73 445.00,426.94 445.00,425.51 C445.00,425.01 442.97,427.38 440.50,430.79 C438.02,434.19 434.08,438.21 431.75,439.72 C429.41,441.22 426.83,443.31 426.00,444.34 C423.00,448.12 416.48,454.00 415.30,454.00 C414.63,454.00 412.83,455.12 411.29,456.49 C404.22,462.78 400.25,465.74 397.25,466.94 C395.46,467.66 394.00,468.59 394.00,469.02 C394.00,470.10 387.34,473.95 382.54,475.65 C378.54,477.07 377.04,478.46 377.02,480.76 C377.01,481.41 381.81,478.90 388.10,475.16 C382.00,479.00 376.96,481.89 375.00,482.49 C373.62,482.92 371.31,484.10 369.85,485.13 C368.39,486.16 366.27,487.00 365.15,487.00 C364.03,487.00 362.87,487.40 362.57,487.88 C362.26,488.38 360.49,489.38 357.93,490.60 C358.41,490.25 358.62,489.96 358.47,489.81 C357.75,489.08 347.69,492.18 345.87,493.70 C345.10,494.33 342.34,495.39 339.74,496.04 C337.13,496.70 335.00,497.81 335.00,498.52 C335.00,499.28 339.24,498.18 345.15,496.03 C339.47,498.23 334.22,499.99 332.67,500.00 C331.66,500.00 327.54,501.14 323.51,502.53 C319.48,503.92 315.80,504.97 315.34,504.87 C314.88,504.76 313.34,505.16 311.92,505.75 C309.44,506.78 296.44,509.09 283.00,510.89 C279.05,511.41 322.78,511.80 394.25,511.88 L 512.00 512.00 L 511.87 393.75 C511.78,311.42 511.61,285.24 510.95,283.44 C511.63,284.79 511.78,309.58 511.87,393.75 L 512.00 512.00 L 0.00 512.00 L 118.25 511.89 L 236.50 511.79 L 223.50 509.98 C158.56,500.94 100.38,468.83 60.11,419.80 C47.75,404.76 44.76,400.65 37.68,389.05 C20.22,360.43 6.77,323.32 3.05,293.50 C2.43,288.55 1.55,281.80 1.08,278.50 C0.59,275.02 0.19,322.74 0.12,392.25 L 0.00 507.35 ZM 393.46 365.00 C405.55,352.08 420.23,322.37 425.93,299.29 C435.50,260.55 431.85,219.88 415.43,182.22 C414.64,180.41 414.00,178.44 414.00,177.83 C414.00,176.60 417.84,173.00 419.15,173.00 C419.62,173.00 420.00,172.60 420.00,172.10 C420.00,170.60 427.13,163.96 428.10,164.56 C428.59,164.87 429.00,164.42 429.00,163.56 C429.00,162.71 430.58,160.26 432.50,158.13 C437.28,152.84 437.07,150.23 431.42,144.58 C424.62,137.77 422.98,138.11 412.36,148.50 C407.57,153.18 403.32,157.00 402.90,157.00 C401.86,157.00 399.20,154.25 397.20,151.11 C396.28,149.67 394.74,147.91 393.77,147.19 C390.64,144.88 391.84,142.44 399.64,135.19 L 407.29 128.09 L 406.67 122.84 C405.82,115.69 403.69,113.75 396.04,113.20 C391.84,112.89 390.00,113.12 390.00,113.93 C390.00,115.37 383.14,121.80 380.80,122.55 C379.87,122.86 378.82,123.98 378.48,125.05 C377.55,127.99 375.39,127.43 369.68,122.76 C366.83,120.43 364.29,118.39 364.04,118.22 C363.79,118.06 367.05,114.55 371.27,110.43 C379.47,102.45 381.00,100.34 381.00,97.05 C381.00,92.27 375.34,86.00 371.01,86.00 C365.78,86.00 362.59,88.03 354.40,96.58 L 346.31 105.04 L 337.48 100.46 C325.73,94.37 313.12,89.51 301.24,86.52 C290.88,83.90 289.26,83.61 276.03,82.02 C259.15,79.99 230.59,81.46 216.00,85.12 C194.00,90.63 178.44,97.30 168.00,105.70 C157.87,113.85 145.08,123.00 143.83,123.00 C143.15,123.00 141.11,121.56 139.30,119.80 C137.48,118.05 136.00,116.87 136.00,117.18 C136.00,117.49 139.09,120.50 142.95,123.98 C138.86,120.54 135.00,116.84 135.00,115.93 C135.00,115.46 133.32,113.93 131.27,112.54 C119.49,104.54 112.00,115.21 112.00,139.98 C112.00,150.36 113.23,158.39 116.85,168.63 C116.17,166.80 115.62,165.23 115.30,164.12 C114.31,160.76 113.28,158.00 113.00,158.00 C111.19,158.01 96.30,188.15 92.17,200.17 C84.88,221.39 83.51,230.32 83.57,256.50 C83.62,277.68 83.84,280.41 86.27,291.02 C89.71,306.03 94.94,320.92 101.04,333.08 C105.71,342.39 114.42,356.58 117.67,360.19 C118.58,361.19 118.87,362.41 118.39,363.19 C117.95,363.91 121.73,360.68 126.79,356.02 C127.44,355.42 128.06,354.84 128.67,354.26 C127.60,355.32 126.44,356.43 125.25,357.56 C116.40,365.96 114.10,368.76 112.25,373.41 C106.89,386.83 111.04,398.80 123.95,407.13 C127.81,409.63 129.35,410.00 135.74,410.00 C144.37,410.00 148.08,408.43 155.75,401.53 C157.01,400.40 157.94,399.51 158.68,398.88 C158.47,399.39 158.99,399.80 160.41,400.54 C161.75,401.24 165.51,404.01 168.75,406.71 C181.11,417.00 205.99,426.07 231.00,429.40 C243.75,431.09 266.04,431.37 276.68,429.97 C290.39,428.16 291.32,427.99 301.24,425.48 C313.57,422.37 326.73,417.24 337.13,411.49 C341.59,409.02 345.62,407.00 346.07,407.00 C346.53,407.00 350.72,408.28 355.38,409.85 C364.28,412.84 371.61,413.24 377.38,411.05 C378.96,410.45 383.06,407.10 386.49,403.62 C392.55,397.47 392.76,397.09 393.36,390.89 C394.07,383.46 393.00,373.83 391.39,373.29 C390.76,373.09 390.71,374.10 391.25,376.48 C390.98,375.58 390.65,374.70 390.27,373.84 C389.89,372.99 389.58,372.24 389.35,371.55 C389.46,371.40 389.58,371.05 389.71,370.50 C389.97,369.40 391.66,366.92 393.46,365.00 ZM 262.60 428.44 C272.78,428.11 281.80,427.22 290.40,425.60 C289.61,425.77 288.81,425.94 288.00,426.10 C279.54,427.83 274.91,428.33 262.60,428.44 ZM 454.65 417.39 C460.37,410.08 467.45,400.05 472.89,391.82 C467.11,400.97 461.08,409.43 454.65,417.39 ZM 202.55 420.52 C210.61,423.06 219.99,425.40 228.64,426.98 C220.39,425.79 212.61,423.77 202.55,420.52 ZM 503.61 190.78 C501.72,183.98 499.17,175.91 496.74,168.93 C498.55,173.84 500.31,179.02 501.66,183.50 C502.26,185.47 502.92,187.97 503.61,190.78 ZM 391.90 379.09 C393.37,385.48 392.24,392.03 389.19,397.52 C392.06,391.99 393.10,385.26 391.90,379.09 ZM 421.80 450.91 C429.64,444.09 437.67,436.42 444.35,429.32 C437.39,436.87 429.93,444.00 421.80,450.91 ZM 420.88 60.19 C412.93,53.47 404.56,47.22 395.84,41.50 C399.54,43.88 403.14,46.31 406.00,48.41 C411.09,52.14 416.06,56.08 420.88,60.19 ZM 410.88 333.11 C417.03,320.68 421.96,307.17 424.55,295.00 C421.88,307.54 417.14,320.64 410.88,333.11 ZM 388.92 368.78 C389.08,366.53 390.65,364.26 394.31,359.72 C394.85,359.05 395.39,358.36 395.93,357.65 C395.11,358.78 394.27,359.90 393.41,361.00 C390.36,364.95 389.16,366.87 388.92,368.78 ZM 371.99 410.33 C366.03,411.59 359.91,410.55 353.12,407.16 C359.69,410.44 366.09,411.49 371.99,410.33 ZM 495.27 346.98 C497.94,339.93 500.53,332.03 502.54,325.20 C502.40,325.71 502.26,326.20 502.12,326.68 C499.51,335.69 495.44,347.07 492.35,354.38 C493.22,352.28 494.25,349.69 495.27,346.98 ZM 125.88 189.82 L 127.11 192.49 L 124.60 205.50 C122.92,214.19 121.64,222.27 120.76,229.99 C121.64,222.28 122.91,214.20 124.58,205.50 L 127.09 192.50 ZM 468.81 113.71 C466.97,111.00 465.03,108.27 462.64,105.00 C461.33,103.21 460.00,101.44 458.65,99.69 C462.22,104.27 465.61,108.96 468.81,113.71 ZM 328.32 412.98 C330.06,412.17 331.82,411.32 333.62,410.44 L 346.74 403.97 L 333.62 410.45 C331.84,411.33 330.08,412.17 328.32,412.98 ZM 162.37 398.57 C163.20,399.27 164.24,400.48 165.80,402.23 C164.22,400.49 163.15,399.32 162.37,398.57 ZM 136.00 346.38 C135.93,345.64 134.81,342.41 133.45,339.06 C134.85,342.52 136.00,345.80 136.00,346.35 C136.00,346.36 136.00,346.37 136.00,346.38 ZM 166.98 403.53 C167.57,404.12 168.48,404.82 169.63,405.60 C168.42,404.80 167.51,404.10 166.98,403.53 ZM 152.29 130.44 C152.30,130.44 152.31,130.44 152.32,130.43 C152.31,130.44 152.30,130.44 152.29,130.44 Z" fill="rgb(254,150,52)"/>
<path d="M 152.29 130.44 C152.30,130.44 152.31,130.44 152.32,130.43 L 152.32 130.43 L 152.33 130.43 C153.16,130.11 154.59,127.97 155.51,125.67 C156.42,123.38 157.88,120.71 158.75,119.74 C159.61,118.78 160.81,117.17 161.41,116.18 C166.73,107.37 167.06,107.09 179.34,101.06 C193.47,94.13 204.99,90.11 221.61,86.31 C232.65,83.79 235.11,83.60 256.00,83.60 C276.89,83.60 279.35,83.79 290.39,86.31 C307.07,90.12 318.54,94.13 332.86,101.16 L 345.23 107.23 L 354.46 98.04 C361.86,90.67 364.02,88.97 367.10,88.41 C363.92,89.86 357.55,96.00 334.23,119.25 C314.37,139.05 301.64,152.54 299.48,156.08 C294.60,164.05 293.00,171.29 292.99,185.46 C292.99,186.60 292.99,187.67 292.99,188.68 C293.01,195.34 293.02,199.10 291.78,202.39 C289.97,207.17 285.52,210.94 274.61,221.11 C265.20,229.88 256.93,236.93 256.24,236.77 C255.00,236.50 166.73,148.59 141.60,122.83 C142.05,123.21 142.50,123.60 142.95,123.98 C143.10,124.11 143.25,124.25 143.41,124.38 C148.08,128.56 151.28,130.75 152.29,130.44 ZM 391.90 379.09 C391.94,379.30 391.98,379.50 392.02,379.71 C391.62,377.63 390.87,375.85 389.52,373.49 C387.64,370.20 369.13,350.90 335.09,316.75 C306.71,288.29 283.37,264.39 283.20,263.64 C282.93,262.37 291.13,253.09 308.18,235.36 L 315.05 228.21 L 333.77 227.79 C354.48,227.31 358.09,226.48 367.51,220.00 C370.16,218.17 385.97,202.92 402.66,186.09 C431.57,156.94 432.98,155.36 433.00,151.77 C433.00,151.88 433.00,151.99 433.00,152.10 C433.00,156.09 432.47,156.84 422.50,166.95 C412.17,177.44 410.28,180.69 412.86,183.55 C414.12,184.95 420.56,201.65 422.30,208.00 C430.50,238.07 431.17,263.93 424.55,295.00 C421.88,307.54 417.14,320.64 410.88,333.11 C406.56,341.71 401.52,350.02 395.93,357.65 C395.39,358.36 394.85,359.05 394.31,359.72 C390.65,364.26 389.08,366.53 388.92,368.78 C388.83,369.49 388.87,370.19 389.00,371.00 C389.09,371.56 389.20,371.74 389.35,371.55 C389.58,372.24 389.89,372.99 390.27,373.84 C390.65,374.70 390.98,375.58 391.25,376.48 C391.37,377.00 391.51,377.57 391.69,378.21 C391.76,378.50 391.84,378.80 391.90,379.09 ZM 262.60 428.44 C260.62,428.46 258.43,428.47 256.00,428.47 C244.84,428.49 236.52,428.11 228.64,426.98 C219.99,425.40 210.61,423.07 202.55,420.52 L 202.55 420.52 C202.40,420.47 202.24,420.42 202.09,420.36 C191.18,416.82 176.12,409.85 169.63,405.60 C168.48,404.82 167.57,404.12 166.98,403.53 C166.97,403.51 166.95,403.50 166.94,403.49 L 166.51 403.01 C166.26,402.74 166.02,402.48 165.80,402.23 C165.79,402.21 165.78,402.20 165.77,402.19 C164.22,400.46 163.19,399.27 162.37,398.57 C161.39,397.61 160.89,397.32 160.45,397.40 C160.12,397.46 159.83,397.72 159.42,398.07 C159.03,398.39 158.78,398.65 158.68,398.88 C157.94,399.51 157.01,400.40 155.75,401.53 C153.74,403.35 151.99,404.79 150.36,405.94 C152.00,404.72 153.63,403.19 155.36,401.28 C160.24,395.90 169.29,386.05 184.57,369.49 C219.39,331.77 239.20,310.12 242.45,306.25 C246.18,301.81 259.82,293.00 262.95,293.01 C264.35,293.01 266.66,293.80 268.08,294.76 C272.63,297.82 281.99,308.10 282.65,310.76 C283.01,312.17 282.51,316.37 281.55,320.07 C279.57,327.70 279.99,331.42 283.52,337.50 C284.79,339.70 300.40,355.99 318.21,373.70 C344.62,399.97 351.59,406.37 356.04,408.44 C356.24,408.53 356.44,408.62 356.63,408.71 C355.47,408.26 354.30,407.75 353.12,407.16 L 346.74 403.97 L 333.62 410.44 C331.82,411.32 330.06,412.17 328.32,412.98 L 328.32 412.98 C315.91,418.69 303.89,422.68 290.40,425.60 C281.80,427.22 272.78,428.11 262.60,428.44 ZM 136.00 346.44 C136.00,346.42 136.00,346.40 136.00,346.38 C136.00,346.37 136.00,346.36 136.00,346.35 C136.00,345.80 134.85,342.52 133.45,339.06 C127.54,324.52 121.70,295.83 119.90,272.50 C118.82,258.46 119.06,244.91 120.76,229.99 L 120.76 229.99 C121.64,222.27 122.92,214.19 124.60,205.50 L 127.11 192.49 L 125.88 189.82 L 122.09 181.37 C121.31,179.62 120.50,177.74 119.72,175.87 C122.47,181.87 126.05,188.15 130.59,195.13 C138.67,207.52 146.70,216.47 177.87,247.74 C194.99,264.92 209.00,279.59 209.00,280.33 C209.00,281.07 205.74,284.63 201.75,288.24 C193.07,296.10 191.52,297.52 178.02,309.89 C172.26,315.18 161.91,324.66 155.02,330.98 C148.14,337.29 139.35,345.41 135.50,349.03 C131.65,352.65 125.40,358.51 121.61,362.06 C116.19,367.13 112.85,371.66 111.22,376.34 C111.51,375.37 111.86,374.39 112.25,373.41 C114.10,368.76 116.40,365.96 125.25,357.56 C126.44,356.43 127.60,355.32 128.67,354.26 C132.84,350.32 136.00,346.97 136.00,346.44 ZM 404.40 120.40 C404.79,121.50 405.00,122.74 405.00,124.08 C405.00,127.94 404.41,128.85 396.98,136.46 L 388.95 144.68 L 394.55 152.34 C397.62,156.55 400.66,160.00 401.30,160.00 C401.94,160.00 406.13,156.35 410.61,151.89 C416.50,146.03 418.49,144.32 421.17,143.63 C417.87,145.52 410.58,152.83 382.36,180.75 C363.37,199.54 362.81,200.00 358.75,200.00 C355.43,200.00 353.93,199.36 351.30,196.80 C348.55,194.14 348.00,192.87 348.00,189.19 L 348.00 184.77 L 376.25 156.35 C402.76,129.67 404.52,127.68 404.81,123.97 C404.91,122.67 404.76,121.47 404.40,120.40 ZM 378.88 98.94 C378.20,100.41 374.59,104.75 370.28,109.23 L 361.56 118.30 L 368.03 124.13 C371.59,127.34 374.98,129.97 375.57,129.98 C376.16,129.99 379.31,127.47 382.57,124.38 C385.00,122.09 386.87,120.34 388.40,119.02 C383.96,123.15 373.25,133.55 361.68,144.97 C347.48,158.99 335.33,170.81 334.68,171.22 C332.84,172.39 326.67,172.07 324.91,170.72 C322.49,168.86 321.00,165.48 321.00,161.87 C321.00,158.93 323.88,155.72 350.00,129.50 C365.07,114.37 377.55,101.15 378.88,98.94 ZM 510.81 228.52 C511.25,224.40 511.62,182.09 511.75,118.59 C511.89,53.74 511.85,0.52 511.67,0.33 C511.48,0.15 458.49,0.11 393.91,0.25 C329.34,0.39 278.75,0.84 281.50,1.25 C282.69,1.43 284.41,1.68 286.32,1.95 C284.16,1.67 281.88,1.39 279.50,1.10 C275.38,0.60 321.76,0.20 392.25,0.13 L 507.61 0.00 L 512.00 0.00 L 511.87 118.25 C511.77,208.08 511.61,230.28 510.81,228.52 ZM 51.30 408.91 C53.66,411.91 56.48,415.38 60.11,419.80 C67.93,429.33 76.44,438.22 85.53,446.43 C83.43,444.55 81.36,442.63 79.32,440.68 C69.20,431.01 59.81,420.34 51.30,408.91 ZM 1.97 226.85 C2.42,215.24 8.32,189.59 14.66,171.39 C9.57,186.01 4.52,206.49 2.98,219.00 C2.67,221.50 2.31,224.30 1.97,226.85 ZM 10.69 328.16 C14.78,341.62 20.14,355.33 26.38,368.23 C22.31,360.00 18.67,351.57 15.51,343.00 C13.87,338.56 12.24,333.47 10.69,328.16 ZM 203.32 5.71 C212.34,3.78 221.00,2.33 226.13,2.01 C216.49,3.39 209.40,4.52 203.32,5.71 ZM 1.96 285.03 C2.33,287.85 2.73,290.92 3.05,293.50 C3.45,296.70 3.96,299.99 4.58,303.35 C3.09,295.97 2.12,289.44 1.96,285.03 ZM 134.10 480.74 C161.39,495.56 191.63,505.55 223.50,509.98 C191.57,505.54 161.47,495.65 134.10,480.74 ZM 110.03 382.80 C110.02,383.07 110.01,383.35 110.01,383.62 C110.00,387.05 110.51,390.15 111.55,393.00 C110.30,389.80 109.79,386.38 110.03,382.80 ZM 425.79 143.09 C427.50,143.10 428.45,143.51 429.71,144.65 C428.61,143.84 427.29,143.30 425.79,143.09 ZM 146.07 408.37 C143.11,409.61 140.04,410.00 135.74,410.00 C139.92,410.00 143.17,409.54 146.07,408.37 ZM 184.23 10.48 C183.50,10.69 182.76,10.92 182.00,11.15 C177.29,12.60 172.62,14.19 168.01,15.90 C155.15,20.69 142.71,26.48 130.80,33.21 C111.93,43.86 94.37,56.88 78.59,71.98 C94.38,56.87 111.93,43.86 130.80,33.21 C142.72,26.47 155.16,20.68 168.01,15.90 C172.62,14.19 177.29,12.60 182.00,11.15 C182.72,10.92 183.47,10.70 184.23,10.48 ZM 112.97 153.79 C112.28,149.39 112.00,144.96 112.00,139.98 C112.00,144.82 112.31,149.37 112.97,153.79 ZM 431.80 146.99 C432.47,148.02 432.81,149.12 432.94,150.56 C432.80,149.23 432.40,148.03 431.80,146.99 ZM 398.43 115.16 C400.26,115.52 401.79,116.43 402.92,117.78 C401.77,116.44 400.20,115.53 398.43,115.16 ZM 377.53 93.51 C378.40,95.26 379.00,97.15 379.00,98.55 C379.00,98.56 379.00,98.56 379.00,98.57 C378.97,97.17 378.37,95.26 377.53,93.51 ZM 393.13 115.66 C393.98,115.28 394.77,115.10 395.63,115.04 C394.80,115.13 393.96,115.33 393.13,115.66 ZM 508.24 212.85 C508.22,212.75 508.20,212.65 508.18,212.56 C507.72,210.05 507.22,207.46 506.70,204.87 C507.24,207.55 507.76,210.24 508.24,212.85 ZM 15.68 168.55 C19.46,158.27 24.48,147.15 29.97,136.67 C24.49,147.13 19.47,158.25 15.68,168.55 ZM 297.76 3.59 C300.62,4.04 303.23,4.50 305.48,4.96 C303.29,4.52 300.71,4.06 297.76,3.59 ZM 372.31 88.44 C372.96,88.57 373.53,88.75 373.94,88.97 C373.97,88.99 374.01,89.00 374.04,89.02 C373.60,88.81 372.99,88.60 372.31,88.44 ZM 0.99 278.48 C1.02,278.26 1.05,278.27 1.08,278.50 C1.10,278.61 1.12,278.73 1.13,278.86 C1.09,278.72 1.04,278.60 1.00,278.50 C1.00,278.49 0.99,278.48 0.99,278.48 ZM 392.30 382.05 C392.39,383.11 392.41,384.17 392.37,385.22 C392.38,384.98 392.38,384.73 392.38,384.49 C392.38,383.60 392.35,382.80 392.30,382.05 ZM 509.95 223.04 C510.15,224.34 510.32,225.56 510.45,226.67 C510.45,226.62 510.44,226.56 510.43,226.50 C510.28,225.37 510.12,224.20 509.95,223.04 ZM 0.94 233.40 C0.96,233.51 0.98,233.54 1.00,233.50 C1.01,233.47 1.03,233.44 1.04,233.41 L 1.02 233.50 C1.00,233.67 0.97,233.63 0.94,233.40 ZM 389.36 397.18 C389.30,397.29 389.24,397.40 389.19,397.52 C389.11,397.65 389.03,397.79 388.96,397.92 C389.09,397.67 389.23,397.43 389.36,397.18 Z" fill="rgb(254,200,82)"/>
<path d="M 0.07 394.25 C0.11,327.63 0.51,277.37 1.00,278.50 C1.47,279.60 1.90,282.30 1.95,284.50 C2.21,296.28 8.85,324.93 15.51,343.00 C29.08,379.80 51.45,414.05 79.32,440.68 C118.89,478.49 168.48,502.32 223.50,509.98 L 236.50 511.79 L 118.25 511.89 L 0.00 512.00 L 0.07 394.25 ZM 283.00 510.89 C296.44,509.09 309.44,506.78 311.92,505.75 C313.34,505.16 314.88,504.76 315.34,504.87 C315.80,504.97 319.48,503.92 323.51,502.53 C327.54,501.14 331.66,500.00 332.67,500.00 C336.38,499.99 361.34,489.88 362.57,487.88 C362.87,487.40 364.03,487.00 365.15,487.00 C366.27,487.00 368.39,486.16 369.85,485.13 C371.31,484.10 373.62,482.92 375.00,482.49 C380.05,480.94 405.52,464.23 416.84,455.03 C440.03,436.19 457.87,415.93 473.87,390.25 C479.92,380.55 486.99,367.05 487.00,365.21 C487.00,364.50 487.89,362.70 488.99,361.21 C491.45,357.84 498.33,339.76 502.12,326.68 C505.36,315.48 508.70,298.89 510.51,285.00 C511.53,277.08 511.76,295.10 511.87,393.75 L 512.00 512.00 L 394.25 511.88 C322.78,511.80 279.05,511.41 283.00,510.89 ZM 356.04 408.44 C351.59,406.37 344.62,399.97 318.21,373.70 C300.40,355.99 284.79,339.70 283.52,337.50 C279.99,331.42 279.57,327.70 281.55,320.07 C282.51,316.37 283.01,312.17 282.65,310.76 C281.99,308.10 272.63,297.82 268.08,294.76 C266.66,293.80 264.35,293.01 262.95,293.01 C259.82,293.00 246.18,301.81 242.45,306.25 C239.20,310.12 219.39,331.77 184.57,369.49 C169.29,386.05 160.24,395.90 155.36,401.28 C149.34,407.92 144.65,410.00 135.74,410.00 C129.35,410.00 127.81,409.63 123.95,407.13 C114.31,400.91 109.99,393.62 110.01,383.62 C110.02,376.07 113.46,369.68 121.61,362.06 C125.40,358.51 131.65,352.65 135.50,349.03 C139.35,345.41 148.14,337.29 155.02,330.98 C161.91,324.66 172.26,315.18 178.02,309.89 C191.52,297.52 193.07,296.10 201.75,288.24 C205.74,284.63 209.00,281.07 209.00,280.33 C209.00,279.59 194.99,264.92 177.87,247.74 C146.70,216.47 138.67,207.52 130.59,195.13 C116.96,174.18 112.00,159.48 112.00,139.98 C112.00,115.21 119.49,104.54 131.27,112.54 C133.32,113.93 135.00,115.41 135.00,115.82 C135.00,116.96 254.79,236.46 256.24,236.77 C256.93,236.93 265.20,229.88 274.61,221.11 C294.17,202.88 292.97,205.20 292.99,185.46 C293.00,171.29 294.60,164.05 299.48,156.08 C301.64,152.54 314.37,139.05 334.23,119.25 C362.59,90.98 365.89,88.00 368.85,88.00 C370.66,88.00 373.04,88.49 374.15,89.08 C376.24,90.20 379.00,95.65 379.00,98.66 C379.00,99.61 365.95,113.49 350.00,129.50 C323.88,155.72 321.00,158.93 321.00,161.87 C321.00,165.48 322.49,168.86 324.91,170.72 C326.67,172.07 332.84,172.39 334.68,171.22 C335.33,170.81 347.48,158.99 361.68,144.97 C375.88,130.95 388.80,118.47 390.38,117.24 C396.91,112.18 405.41,116.15 404.81,123.97 C404.52,127.68 402.76,129.67 376.25,156.35 L 348.00 184.77 L 348.00 189.19 C348.00,192.87 348.55,194.14 351.30,196.80 C353.93,199.36 355.43,200.00 358.75,200.00 C362.81,200.00 363.37,199.54 382.36,180.75 C422.30,141.23 420.33,143.00 424.41,143.00 C429.48,143.00 433.00,146.57 433.00,151.70 C433.00,155.34 431.73,156.77 402.66,186.09 C385.97,202.92 370.16,218.17 367.51,220.00 C358.09,226.48 354.48,227.31 333.77,227.79 L 315.05 228.21 L 308.18 235.36 C291.13,253.09 282.93,262.37 283.20,263.64 C283.37,264.39 306.71,288.29 335.09,316.75 C369.13,350.90 387.64,370.20 389.52,373.49 C391.76,377.42 392.36,379.74 392.38,384.49 C392.45,403.89 373.33,416.49 356.04,408.44 ZM 510.67 228.50 C509.56,217.86 504.68,193.46 501.66,183.50 C497.96,171.26 491.20,153.82 488.99,150.79 C487.89,149.30 487.00,147.50 487.00,146.79 C487.00,146.08 485.15,141.90 482.89,137.50 C465.62,103.81 438.19,72.03 406.00,48.41 C397.13,41.90 381.16,32.21 377.18,30.92 C375.16,30.26 372.38,28.95 371.00,28.01 C369.62,27.07 366.95,25.78 365.06,25.14 C363.18,24.50 360.93,23.38 360.06,22.66 C357.58,20.58 340.99,14.09 335.50,13.05 C332.75,12.53 327.80,11.19 324.50,10.08 C321.20,8.96 317.71,8.04 316.74,8.02 C315.77,8.01 314.19,7.60 313.24,7.11 C310.98,5.95 303.41,4.35 294.00,3.04 C289.88,2.47 284.25,1.66 281.50,1.25 C278.75,0.84 329.34,0.39 393.91,0.25 C458.49,0.11 511.48,0.15 511.67,0.33 C511.85,0.52 511.89,53.74 511.75,118.59 C511.60,188.93 511.16,233.27 510.67,228.50 ZM 0.07 117.75 L 0.00 0.00 L 117.75 0.07 C184.37,0.11 234.63,0.51 233.50,1.00 C232.40,1.47 229.70,1.90 227.50,1.95 C219.01,2.14 196.35,6.72 182.00,11.15 C143.34,23.08 107.92,43.92 78.59,71.98 C70.33,79.88 55.25,97.41 47.00,108.70 C35.68,124.18 23.12,148.24 15.58,168.82 C8.78,187.42 2.21,215.70 1.95,227.50 C1.90,229.70 1.47,232.40 1.00,233.50 C0.51,234.63 0.11,184.37 0.07,117.75 Z" fill="rgb(254,254,251)"/>
</g>
</svg>